<svg xmlns="http://www.w3.org/2000/svg" xmlns:xlink="http://www.w3.org/1999/xlink" width="800" zoomAndPan="magnify" viewBox="0 0 600 599.999999" height="800" preserveAspectRatio="xMidYMid meet" version="1.0"><defs><clipPath id="39caed8839"><path d="M 198.824219 204.472656 L 398.148438 204.472656 L 398.148438 403.800781 L 198.824219 403.800781 Z M 198.824219 204.472656 " clip-rule="nonzero"/></clipPath><clipPath id="bc416ba289"><path d="M 298.488281 204.472656 C 243.445312 204.472656 198.824219 249.09375 198.824219 304.136719 C 198.824219 359.179688 243.445312 403.800781 298.488281 403.800781 C 353.53125 403.800781 398.148438 359.179688 398.148438 304.136719 C 398.148438 249.09375 353.53125 204.472656 298.488281 204.472656 Z M 298.488281 204.472656 " clip-rule="nonzero"/></clipPath><clipPath id="a875772972"><path d="M 0.824219 0.472656 L 200.148438 0.472656 L 200.148438 199.800781 L 0.824219 199.800781 Z M 0.824219 0.472656 " clip-rule="nonzero"/></clipPath><clipPath id="96993efcab"><path d="M 100.488281 0.472656 C 45.445312 0.472656 0.824219 45.09375 0.824219 100.136719 C 0.824219 155.179688 45.445312 199.800781 100.488281 199.800781 C 155.53125 199.800781 200.148438 155.179688 200.148438 100.136719 C 200.148438 45.09375 155.53125 0.472656 100.488281 0.472656 Z M 100.488281 0.472656 " clip-rule="nonzero"/></clipPath><clipPath id="5e4d18c6b4"><rect x="0" width="201" y="0" height="200"/></clipPath><clipPath id="0bb31dc13f"><path d="M 0 0 L 600 0 L 600 600 L 0 600 Z M 0 0 " clip-rule="nonzero"/></clipPath><clipPath id="37ec6fadb5"><path d="M 151.070312 152.582031 L 445.902344 152.582031 L 445.902344 447.417969 L 151.070312 447.417969 Z M 151.070312 152.582031 " clip-rule="nonzero"/></clipPath><clipPath id="b7396513ac"><path d="M 298.488281 152.582031 C 217.070312 152.582031 151.070312 218.582031 151.070312 300 C 151.070312 381.417969 217.070312 447.417969 298.488281 447.417969 C 379.902344 447.417969 445.902344 381.417969 445.902344 300 C 445.902344 218.582031 379.902344 152.582031 298.488281 152.582031 Z M 298.488281 152.582031 " clip-rule="nonzero"/></clipPath><clipPath id="9633b0106d"><path d="M 0.0703125 0.582031 L 294.902344 0.582031 L 294.902344 295.417969 L 0.0703125 295.417969 Z M 0.0703125 0.582031 " clip-rule="nonzero"/></clipPath><clipPath id="7e45b879e4"><path d="M 147.488281 0.582031 C 66.070312 0.582031 0.0703125 66.582031 0.0703125 148 C 0.0703125 229.417969 66.070312 295.417969 147.488281 295.417969 C 228.902344 295.417969 294.902344 229.417969 294.902344 148 C 294.902344 66.582031 228.902344 0.582031 147.488281 0.582031 Z M 147.488281 0.582031 " clip-rule="nonzero"/></clipPath><clipPath id="fa5ed3fac3"><rect x="0" width="295" y="0" height="296"/></clipPath><clipPath id="d778e9a055"><path d="M 151.070312 212.160156 L 442.152344 212.160156 L 442.152344 332.414062 L 151.070312 332.414062 Z M 151.070312 212.160156 " clip-rule="nonzero"/></clipPath><clipPath id="291aae237c"><path d="M 324.015625 230.8125 L 407.003906 230.8125 L 407.003906 313.800781 L 324.015625 313.800781 Z M 324.015625 230.8125 " clip-rule="nonzero"/></clipPath><clipPath id="2c0a7da86b"><path d="M 365.511719 230.8125 C 342.59375 230.8125 324.015625 249.390625 324.015625 272.308594 C 324.015625 295.222656 342.59375 313.800781 365.511719 313.800781 C 388.425781 313.800781 407.003906 295.222656 407.003906 272.308594 C 407.003906 249.390625 388.425781 230.8125 365.511719 230.8125 Z M 365.511719 230.8125 " clip-rule="nonzero"/></clipPath><clipPath id="7cace0a2af"><path d="M 0.015625 0.8125 L 83.003906 0.8125 L 83.003906 83.800781 L 0.015625 83.800781 Z M 0.015625 0.8125 " clip-rule="nonzero"/></clipPath><clipPath id="3d31edc42d"><path d="M 41.511719 0.8125 C 18.59375 0.8125 0.015625 19.390625 0.015625 42.308594 C 0.015625 65.222656 18.59375 83.800781 41.511719 83.800781 C 64.425781 83.800781 83.003906 65.222656 83.003906 42.308594 C 83.003906 19.390625 64.425781 0.8125 41.511719 0.8125 Z M 41.511719 0.8125 " clip-rule="nonzero"/></clipPath><clipPath id="37e05252d3"><rect x="0" width="84" y="0" height="84"/></clipPath><clipPath id="5e7493b8dc"><path d="M 186.410156 230.8125 L 269.398438 230.8125 L 269.398438 313.800781 L 186.410156 313.800781 Z M 186.410156 230.8125 " clip-rule="nonzero"/></clipPath><clipPath id="7a36737c79"><path d="M 227.90625 230.8125 C 204.988281 230.8125 186.410156 249.390625 186.410156 272.308594 C 186.410156 295.222656 204.988281 313.800781 227.90625 313.800781 C 250.820312 313.800781 269.398438 295.222656 269.398438 272.308594 C 269.398438 249.390625 250.820312 230.8125 227.90625 230.8125 Z M 227.90625 230.8125 " clip-rule="nonzero"/></clipPath><clipPath id="f553ec7105"><path d="M 0.410156 0.8125 L 83.398438 0.8125 L 83.398438 83.800781 L 0.410156 83.800781 Z M 0.410156 0.8125 " clip-rule="nonzero"/></clipPath><clipPath id="ad07ae205a"><path d="M 41.90625 0.8125 C 18.988281 0.8125 0.410156 19.390625 0.410156 42.308594 C 0.410156 65.222656 18.988281 83.800781 41.90625 83.800781 C 64.820312 83.800781 83.398438 65.222656 83.398438 42.308594 C 83.398438 19.390625 64.820312 0.8125 41.90625 0.8125 Z M 41.90625 0.8125 " clip-rule="nonzero"/></clipPath><clipPath id="d607c96ff4"><rect x="0" width="84" y="0" height="84"/></clipPath><clipPath id="1e6ed5955f"><path d="M 193 235.613281 L 262.652344 235.613281 L 262.652344 250 L 193 250 Z M 193 235.613281 " clip-rule="nonzero"/></clipPath><clipPath id="a27db0ab0e"><path d="M 192.972656 257 L 262.652344 257 L 262.652344 272 L 192.972656 272 Z M 192.972656 257 " clip-rule="nonzero"/></clipPath><clipPath id="f3004aa5cf"><path d="M 193 279 L 262.652344 279 L 262.652344 294.054688 L 193 294.054688 Z M 193 279 " clip-rule="nonzero"/></clipPath><clipPath id="9887185221"><path d="M 331.078125 235.613281 L 400.757812 235.613281 L 400.757812 250 L 331.078125 250 Z M 331.078125 235.613281 " clip-rule="nonzero"/></clipPath><clipPath id="94d2b2de6e"><path d="M 331.078125 257 L 400.757812 257 L 400.757812 272 L 331.078125 272 Z M 331.078125 257 " clip-rule="nonzero"/></clipPath><clipPath id="af2b7c3f0b"><path d="M 331.078125 279 L 400.757812 279 L 400.757812 294.054688 L 331.078125 294.054688 Z M 331.078125 279 " clip-rule="nonzero"/></clipPath><clipPath id="2cb0f722de"><rect x="0" width="600" y="0" height="600"/></clipPath></defs><rect x="-60" width="720" fill="#ffffff" y="-60" height="719.999999" fill-opacity="1"/><rect x="-60" width="720" fill="#ffffff" y="-60" height="719.999999" fill-opacity="1"/><g clip-path="url(#39caed8839)"><g clip-path="url(#bc416ba289)"><g transform="matrix(1, 0, 0, 1, 198, 204)"><g clip-path="url(#5e4d18c6b4)"><g clip-path="url(#a875772972)"><g clip-path="url(#96993efcab)"><path fill="#ecd11e" d="M 0.824219 0.472656 L 200.148438 0.472656 L 200.148438 199.800781 L 0.824219 199.800781 Z M 0.824219 0.472656 " fill-opacity="1" fill-rule="nonzero"/></g></g></g></g></g></g><g transform="matrix(1, 0, 0, 1, 0, -0.000000000000034788)"><g clip-path="url(#2cb0f722de)"><g clip-path="url(#0bb31dc13f)"><path fill="#ecd11e" d="M 497.457031 690.136719 L 99.511719 690.136719 C -5.664062 690.136719 -91.660156 604.144531 -91.660156 498.96875 L -91.660156 101.023438 C -91.660156 -4.152344 -5.664062 -90.144531 99.511719 -90.144531 L 497.617188 -90.144531 C 602.632812 -90.144531 688.625 -4.152344 688.625 101.023438 L 688.625 499.132812 C 688.625 604.144531 602.632812 690.136719 497.457031 690.136719 Z M 497.457031 690.136719 " fill-opacity="1" fill-rule="nonzero"/></g><path fill="#000000" d="M 298.484375 449.226562 C 372.773438 449.226562 433.246094 388.753906 433.246094 314.464844 C 433.246094 305.035156 432.269531 295.769531 430.480469 286.992188 C 430.15625 288.292969 429.832031 289.753906 429.667969 291.542969 C 426.90625 314.140625 411.460938 341.9375 384.800781 349.089844 C 380.414062 350.226562 376.023438 350.878906 371.632812 350.878906 C 360.253906 350.878906 349.527344 346.8125 339.773438 338.847656 C 324.003906 325.84375 312.625 302.597656 310.511719 280.328125 C 307.75 281.464844 304.984375 282.765625 302.546875 283.902344 C 302.382812 284.066406 302.058594 284.066406 301.734375 284.226562 C 301.570312 284.226562 301.570312 284.390625 301.410156 284.390625 C 301.246094 284.390625 301.085938 284.554688 300.921875 284.554688 C 300.757812 284.554688 300.597656 284.714844 300.433594 284.714844 C 300.109375 284.714844 299.945312 284.878906 299.621094 284.878906 C 299.457031 284.878906 299.296875 284.878906 299.132812 284.878906 C 298.808594 284.878906 298.484375 284.878906 298.15625 284.878906 C 297.996094 284.878906 297.832031 284.878906 297.671875 284.878906 C 297.34375 284.878906 297.019531 284.878906 296.859375 284.714844 C 296.695312 284.714844 296.53125 284.554688 296.371094 284.554688 C 296.207031 284.554688 296.042969 284.390625 295.882812 284.390625 C 295.71875 284.390625 295.71875 284.226562 295.558594 284.226562 C 295.394531 284.066406 295.230469 284.066406 295.070312 283.902344 C 295.070312 283.902344 294.90625 283.902344 294.90625 283.742188 C 292.46875 282.601562 289.867188 281.300781 286.941406 280.164062 C 284.664062 302.433594 273.449219 325.679688 257.679688 338.6875 C 248.089844 346.652344 237.199219 350.714844 225.820312 350.714844 C 221.429688 350.714844 217.203125 350.066406 212.652344 348.925781 C 185.828125 341.773438 170.550781 314.140625 167.785156 291.382812 C 167.621094 289.753906 167.296875 288.128906 166.972656 286.828125 C 165.183594 295.769531 164.210938 304.875 164.210938 314.300781 C 163.722656 388.917969 224.195312 449.226562 298.484375 449.226562 Z M 252.480469 360.46875 C 256.21875 357.542969 261.582031 358.355469 264.34375 361.929688 C 266.945312 365.183594 271.335938 369.734375 278 372.660156 C 285.316406 375.910156 292.304688 375.910156 296.859375 375.425781 C 297.019531 375.425781 297.183594 375.425781 297.34375 375.425781 C 297.507812 375.425781 297.671875 375.425781 297.832031 375.425781 C 298.15625 375.425781 298.644531 375.425781 298.972656 375.425781 C 299.132812 375.425781 299.296875 375.425781 299.457031 375.425781 C 299.621094 375.425781 299.785156 375.425781 299.945312 375.425781 C 304.496094 375.910156 311.324219 375.910156 318.804688 372.660156 C 325.628906 369.734375 330.019531 365.183594 332.457031 361.929688 C 335.382812 358.191406 340.75 357.542969 344.324219 360.46875 C 348.0625 363.394531 348.714844 368.757812 345.949219 372.335938 C 340.585938 379.324219 333.597656 384.851562 325.628906 388.265625 C 317.828125 391.679688 310.511719 392.816406 304.335938 392.816406 C 302.058594 392.816406 300.109375 392.65625 298.320312 392.492188 C 296.53125 392.65625 294.582031 392.816406 292.304688 392.816406 C 286.292969 392.816406 278.8125 391.84375 271.011719 388.265625 C 260.933594 383.878906 254.429688 377.210938 250.691406 372.335938 C 248.089844 368.597656 248.738281 363.230469 252.480469 360.46875 Z M 252.480469 360.46875 " fill-opacity="1" fill-rule="nonzero"/><path fill="#000000" d="M 326.929688 273.988281 C 327.417969 293.167969 337.007812 314.464844 350.503906 325.519531 C 359.605469 332.996094 369.523438 335.273438 380.25 332.507812 C 398.621094 327.632812 410.488281 307.148438 412.601562 289.429688 C 413.414062 282.601562 415.527344 277.402344 418.125 273.175781 C 408.210938 270.25 397.96875 268.296875 387.726562 267.320312 C 364.480469 265.371094 343.835938 268.785156 326.929688 273.988281 Z M 326.929688 273.988281 " fill-opacity="1" fill-rule="nonzero"/><path fill="#000000" d="M 280.765625 259.683594 C 281.089844 259.84375 281.25 259.84375 281.578125 260.007812 C 287.753906 262.121094 293.445312 264.558594 298.484375 266.835938 C 303.523438 264.558594 309.210938 262.121094 315.390625 260.007812 C 315.714844 259.84375 315.875 259.84375 316.203125 259.683594 C 335.710938 252.855469 360.742188 247.976562 389.027344 250.417969 C 399.433594 251.390625 409.671875 253.179688 419.753906 255.941406 C 397.96875 210.914062 351.800781 179.867188 298.484375 179.867188 C 245.164062 179.867188 198.996094 210.914062 177.214844 255.941406 C 187.292969 253.179688 197.535156 251.230469 207.9375 250.417969 C 236.386719 247.976562 261.257812 252.855469 280.765625 259.683594 Z M 280.765625 259.683594 " fill-opacity="1" fill-rule="nonzero"/><path fill="#000000" d="M 209.402344 267.320312 C 199.160156 268.296875 188.917969 270.25 179.003906 273.175781 C 181.601562 277.238281 183.554688 282.601562 184.527344 289.429688 C 186.804688 307.148438 198.671875 327.632812 216.878906 332.507812 C 227.605469 335.433594 237.523438 332.996094 246.625 325.519531 C 260.121094 314.464844 269.546875 293.007812 270.199219 273.988281 C 253.128906 268.785156 232.484375 265.371094 209.402344 267.320312 Z M 238.660156 276.101562 C 242.074219 279.351562 242.238281 284.714844 239.148438 288.128906 L 218.828125 310.074219 C 217.203125 311.863281 214.925781 312.839844 212.652344 312.839844 C 210.539062 312.839844 208.425781 312.027344 206.800781 310.5625 C 203.386719 307.3125 203.222656 301.949219 206.3125 298.535156 L 226.632812 276.589844 C 229.882812 273.011719 235.246094 272.847656 238.660156 276.101562 Z M 238.660156 276.101562 " fill-opacity="1" fill-rule="nonzero"/><path fill="#000000" d="M 515.988281 466.292969 C 515.824219 466.292969 515.664062 466.292969 515.5 466.292969 L 421.703125 466.292969 C 421.539062 466.292969 421.378906 466.292969 421.214844 466.292969 C 421.050781 466.292969 420.890625 466.292969 420.726562 466.292969 L 176.402344 466.292969 C 176.238281 466.292969 176.074219 466.292969 175.914062 466.292969 C 175.75 466.292969 175.589844 466.292969 175.425781 466.292969 L 81.628906 466.292969 C 81.464844 466.292969 81.304688 466.292969 81.140625 466.292969 C 80.980469 466.292969 80.816406 466.292969 80.652344 466.292969 L 50.253906 466.292969 L 50.253906 573.582031 L 569.792969 573.582031 L 569.792969 466.292969 L 516.800781 466.292969 C 516.476562 466.292969 516.148438 466.292969 515.988281 466.292969 Z M 483.3125 539.609375 L 452.265625 539.609375 C 441.046875 539.609375 429.992188 544.648438 421.867188 553.425781 C 411.949219 563.992188 398.292969 570.007812 384.476562 570.007812 C 383.015625 570.007812 381.386719 570.007812 379.925781 569.84375 C 368.058594 568.707031 356.84375 563.015625 348.390625 554.078125 C 340.585938 545.785156 330.34375 540.910156 319.453125 540.421875 L 298.808594 539.609375 L 278.164062 540.421875 C 267.273438 540.910156 257.03125 545.785156 249.226562 554.078125 C 240.773438 563.015625 229.558594 568.707031 217.691406 569.84375 C 216.226562 570.007812 214.601562 570.007812 213.140625 570.007812 C 199.320312 570.007812 185.667969 563.992188 175.75 553.425781 C 167.621094 544.648438 156.570312 539.609375 145.351562 539.609375 L 114.304688 539.609375 C 109.589844 539.609375 105.851562 535.871094 105.851562 531.15625 C 105.851562 526.441406 109.589844 522.703125 114.304688 522.703125 L 145.351562 522.703125 C 161.285156 522.703125 176.890625 529.691406 188.269531 541.882812 C 195.582031 549.851562 205.988281 553.914062 216.066406 552.9375 C 223.867188 552.125 231.183594 548.386719 236.875 542.535156 C 247.765625 530.992188 262.234375 524.328125 277.511719 523.679688 L 298.15625 522.863281 L 298.644531 522.863281 C 299.132812 522.863281 299.457031 522.863281 299.945312 522.863281 L 320.429688 523.679688 C 335.871094 524.328125 350.175781 530.992188 361.070312 542.535156 C 366.757812 548.550781 374.074219 552.289062 381.875 552.9375 C 391.953125 553.914062 402.359375 549.851562 409.671875 541.882812 C 421.050781 529.691406 436.660156 522.703125 452.589844 522.703125 L 483.636719 522.703125 C 488.351562 522.703125 492.089844 526.441406 492.089844 531.15625 C 491.765625 535.871094 488.027344 539.609375 483.3125 539.609375 Z M 534.84375 495.878906 C 534.84375 500.59375 531.105469 504.332031 526.390625 504.332031 L 457.304688 504.332031 C 450.152344 504.332031 443.324219 506.609375 437.632812 510.835938 C 427.71875 518.152344 412.113281 526.441406 392.117188 526.441406 C 390.328125 526.441406 388.378906 526.441406 386.589844 526.277344 C 368.871094 524.976562 355.378906 517.339844 347.25 511.324219 C 341.234375 506.773438 334.246094 504.332031 326.929688 504.332031 L 270.199219 504.332031 C 262.882812 504.332031 255.890625 506.773438 249.878906 511.324219 C 241.75 517.339844 228.257812 524.976562 210.539062 526.277344 C 208.585938 526.441406 206.800781 526.441406 205.011719 526.441406 C 185.015625 526.441406 169.410156 518.152344 159.496094 510.835938 C 153.804688 506.609375 146.976562 504.332031 139.824219 504.332031 L 70.738281 504.332031 C 66.023438 504.332031 62.285156 500.59375 62.285156 495.878906 C 62.285156 491.167969 66.023438 487.425781 70.738281 487.425781 L 139.824219 487.425781 C 150.554688 487.425781 161.121094 490.839844 169.734375 497.179688 C 178.1875 503.359375 192.007812 510.671875 209.402344 509.371094 C 223.054688 508.398438 233.460938 502.546875 239.800781 497.667969 C 248.902344 491.003906 259.304688 487.425781 270.359375 487.425781 L 327.09375 487.425781 C 337.984375 487.425781 348.550781 491.003906 357.65625 497.667969 C 363.996094 502.382812 374.398438 508.234375 388.054688 509.371094 C 405.609375 510.671875 419.265625 503.519531 427.71875 497.179688 C 436.332031 490.839844 446.738281 487.425781 457.628906 487.425781 L 526.714844 487.425781 C 531.105469 487.265625 534.84375 491.167969 534.84375 495.878906 Z M 534.84375 495.878906 " fill-opacity="1" fill-rule="nonzero"/><path fill="#000000" d="M 63.910156 192.058594 L 124.058594 222.617188 C 125.359375 223.269531 126.65625 223.59375 127.957031 223.59375 C 131.046875 223.59375 133.972656 221.96875 135.597656 218.878906 C 137.710938 214.652344 136.085938 209.613281 131.859375 207.5 L 71.714844 176.9375 C 67.488281 174.824219 62.445312 176.453125 60.332031 180.679688 C 57.894531 184.90625 59.683594 189.945312 63.910156 192.058594 Z M 63.910156 192.058594 " fill-opacity="1" fill-rule="nonzero"/><path fill="#000000" d="M 44.402344 230.582031 L 103.738281 259.355469 C 104.875 260.007812 106.175781 260.167969 107.476562 260.167969 C 110.566406 260.167969 113.652344 258.382812 115.117188 255.292969 C 117.230469 251.066406 115.441406 246.027344 111.214844 243.914062 L 51.882812 215.140625 C 47.65625 213.027344 42.613281 214.816406 40.5 219.042969 C 38.386719 223.429688 40.175781 228.46875 44.402344 230.582031 Z M 44.402344 230.582031 " fill-opacity="1" fill-rule="nonzero"/><path fill="#000000" d="M 151.367188 190.757812 C 152.992188 192.21875 155.105469 193.03125 157.21875 193.03125 C 159.496094 193.03125 161.769531 192.058594 163.394531 190.269531 C 166.648438 186.855469 166.484375 181.492188 162.910156 178.238281 L 114.628906 133.046875 C 111.214844 129.796875 105.851562 129.960938 102.597656 133.535156 C 99.347656 137.113281 99.511719 142.3125 103.085938 145.566406 Z M 151.367188 190.757812 " fill-opacity="1" fill-rule="nonzero"/><path fill="#000000" d="M 225.167969 147.027344 C 226.632812 150.117188 229.71875 151.90625 232.972656 151.90625 C 234.109375 151.90625 235.410156 151.578125 236.546875 151.09375 C 240.773438 149.140625 242.726562 144.101562 240.773438 139.714844 L 215.253906 84.441406 C 213.300781 80.214844 208.261719 78.265625 203.875 80.214844 C 199.648438 82.167969 197.695312 87.207031 199.648438 91.597656 Z M 225.167969 147.027344 " fill-opacity="1" fill-rule="nonzero"/><path fill="#000000" d="M 121.457031 369.246094 C 119.503906 365.019531 114.304688 363.230469 110.078125 365.183594 L 29.933594 403.058594 C 25.707031 405.011719 23.921875 410.210938 25.871094 414.4375 C 27.335938 417.527344 30.421875 419.316406 33.511719 419.316406 C 34.8125 419.316406 35.949219 418.988281 37.089844 418.503906 L 117.230469 380.625 C 121.617188 378.675781 123.40625 373.636719 121.457031 369.246094 Z M 121.457031 369.246094 " fill-opacity="1" fill-rule="nonzero"/><path fill="#000000" d="M 100.324219 331.207031 L 53.832031 334.945312 C 49.117188 335.273438 45.703125 339.335938 46.027344 344.050781 C 46.355469 348.4375 50.09375 351.851562 54.480469 351.851562 C 54.644531 351.851562 54.96875 351.851562 55.132812 351.851562 L 101.625 348.277344 C 106.339844 347.953125 109.75 343.886719 109.425781 339.171875 C 109.101562 334.296875 105.039062 330.71875 100.324219 331.207031 Z M 100.324219 331.207031 " fill-opacity="1" fill-rule="nonzero"/><path fill="#000000" d="M 135.109375 407.609375 C 122.59375 410.699219 111.050781 416.0625 100.648438 423.542969 C 91.058594 430.53125 82.765625 439.308594 76.265625 449.226562 L 97.558594 449.226562 C 101.460938 444.835938 105.851562 440.773438 110.566406 437.195312 C 119.179688 431.019531 128.769531 426.46875 139.011719 424.027344 C 143.5625 422.890625 146.328125 418.339844 145.191406 413.789062 C 144.214844 409.238281 139.664062 406.472656 135.109375 407.609375 Z M 135.109375 407.609375 " fill-opacity="1" fill-rule="nonzero"/><path fill="#000000" d="M 164.371094 437.683594 C 160.308594 439.960938 158.84375 445.160156 161.285156 449.226562 L 180.953125 449.226562 L 176.074219 440.773438 C 173.636719 436.707031 168.4375 435.246094 164.371094 437.683594 Z M 164.371094 437.683594 " fill-opacity="1" fill-rule="nonzero"/><path fill="#000000" d="M 104.710938 307.960938 C 109.265625 307.960938 113.164062 304.222656 113.164062 299.671875 C 113.328125 294.957031 109.589844 291.054688 104.875 290.894531 L 19.042969 289.105469 C 14.328125 289.105469 10.429688 292.679688 10.265625 297.394531 C 10.101562 302.109375 13.84375 306.011719 18.554688 306.011719 L 104.386719 307.800781 Z M 104.710938 307.960938 " fill-opacity="1" fill-rule="nonzero"/><path fill="#000000" d="M 298.484375 138.25 C 303.199219 138.25 306.9375 134.511719 306.9375 129.796875 L 306.9375 34.863281 C 306.9375 30.148438 303.199219 26.410156 298.484375 26.410156 C 293.769531 26.410156 290.03125 30.148438 290.03125 34.863281 L 290.03125 129.796875 C 290.03125 134.511719 293.769531 138.25 298.484375 138.25 Z M 298.484375 138.25 " fill-opacity="1" fill-rule="nonzero"/><path fill="#000000" d="M 421.050781 440.773438 L 416.175781 449.226562 L 435.84375 449.226562 C 438.121094 445.160156 436.820312 439.960938 432.757812 437.683594 C 428.53125 435.246094 423.328125 436.707031 421.050781 440.773438 Z M 421.050781 440.773438 " fill-opacity="1" fill-rule="nonzero"/><path fill="#000000" d="M 451.613281 413.789062 C 450.476562 418.339844 453.238281 422.890625 457.792969 424.027344 C 468.195312 426.628906 477.785156 431.019531 486.238281 437.195312 C 490.953125 440.609375 495.34375 444.675781 499.242188 449.226562 L 520.539062 449.226562 C 514.035156 439.308594 505.746094 430.53125 496.15625 423.542969 C 485.75 415.902344 474.210938 410.535156 461.691406 407.609375 C 457.464844 406.472656 452.75 409.238281 451.613281 413.789062 Z M 451.613281 413.789062 " fill-opacity="1" fill-rule="nonzero"/><path fill="#000000" d="M 360.582031 151.253906 C 361.71875 151.742188 363.019531 152.066406 364.15625 152.066406 C 367.410156 152.066406 370.496094 150.28125 371.960938 147.191406 L 397.480469 91.921875 C 399.433594 87.695312 397.644531 82.65625 393.253906 80.542969 C 389.027344 78.589844 383.988281 80.378906 381.875 84.769531 L 356.355469 140.039062 C 354.402344 144.265625 356.191406 149.304688 360.582031 151.253906 Z M 360.582031 151.253906 " fill-opacity="1" fill-rule="nonzero"/><path fill="#000000" d="M 439.910156 193.03125 C 442.023438 193.03125 444.136719 192.21875 445.761719 190.757812 L 494.042969 145.566406 C 497.457031 142.3125 497.617188 136.949219 494.53125 133.535156 C 491.277344 130.121094 485.914062 129.960938 482.5 133.046875 L 434.21875 178.238281 C 430.804688 181.492188 430.644531 186.855469 433.730469 190.269531 C 435.359375 192.21875 437.632812 193.03125 439.910156 193.03125 Z M 439.910156 193.03125 " fill-opacity="1" fill-rule="nonzero"/><path fill="#000000" d="M 577.921875 289.105469 L 492.089844 290.894531 C 487.375 291.054688 483.636719 294.957031 483.800781 299.671875 C 483.964844 304.386719 487.703125 307.960938 492.253906 307.960938 L 492.417969 307.960938 L 578.246094 306.171875 C 582.960938 306.011719 586.699219 302.109375 586.539062 297.558594 C 586.539062 292.84375 582.636719 289.105469 577.921875 289.105469 Z M 577.921875 289.105469 " fill-opacity="1" fill-rule="nonzero"/><path fill="#000000" d="M 481.851562 255.292969 C 483.3125 258.382812 486.402344 260.167969 489.488281 260.167969 C 490.789062 260.167969 491.929688 259.84375 493.230469 259.355469 L 552.5625 230.582031 C 556.789062 228.46875 558.578125 223.429688 556.464844 219.203125 C 554.351562 214.976562 549.3125 213.191406 545.085938 215.304688 L 485.75 244.078125 C 481.6875 246.027344 479.898438 251.066406 481.851562 255.292969 Z M 481.851562 255.292969 " fill-opacity="1" fill-rule="nonzero"/><path fill="#000000" d="M 541.835938 351.851562 C 541.996094 351.851562 542.320312 351.851562 542.484375 351.851562 C 546.875 351.851562 550.613281 348.4375 550.9375 344.050781 C 551.261719 339.335938 547.847656 335.273438 543.132812 334.945312 L 496.644531 331.207031 C 491.929688 330.882812 487.863281 334.296875 487.539062 339.011719 C 487.214844 343.726562 490.628906 347.789062 495.34375 348.113281 Z M 541.835938 351.851562 " fill-opacity="1" fill-rule="nonzero"/><path fill="#000000" d="M 567.195312 403.058594 L 487.050781 365.183594 C 482.824219 363.230469 477.785156 365.019531 475.671875 369.246094 C 473.722656 373.472656 475.511719 378.511719 479.738281 380.625 L 559.878906 418.503906 C 561.015625 418.988281 562.316406 419.316406 563.453125 419.316406 C 566.707031 419.316406 569.632812 417.527344 571.09375 414.4375 C 573.207031 410.210938 571.421875 405.171875 567.195312 403.058594 Z M 567.195312 403.058594 " fill-opacity="1" fill-rule="nonzero"/><path fill="#000000" d="M 461.53125 219.042969 C 462.992188 221.96875 466.082031 223.757812 469.171875 223.757812 C 470.46875 223.757812 471.769531 223.429688 473.070312 222.78125 L 533.21875 192.21875 C 537.445312 190.105469 539.070312 184.90625 536.957031 180.839844 C 534.84375 176.613281 529.640625 174.988281 525.578125 177.101562 L 465.429688 207.664062 C 461.042969 209.613281 459.253906 214.816406 461.53125 219.042969 Z M 461.53125 219.042969 " fill-opacity="1" fill-rule="nonzero"/><g clip-path="url(#37ec6fadb5)"><g clip-path="url(#b7396513ac)"><g transform="matrix(1, 0, 0, 1, 151, 152)"><g clip-path="url(#fa5ed3fac3)"><g clip-path="url(#9633b0106d)"><g clip-path="url(#7e45b879e4)"><path fill="#000000" d="M 0.0703125 0.582031 L 294.902344 0.582031 L 294.902344 295.417969 L 0.0703125 295.417969 Z M 0.0703125 0.582031 " fill-opacity="1" fill-rule="nonzero"/></g></g></g></g></g></g><g clip-path="url(#d778e9a055)"><path fill="#ecd11e" d="M 375.207031 228.0625 C 354.515625 223.15625 333.152344 234.433594 324.140625 253.300781 C 315.25 271.941406 321.0625 295.558594 337.417969 308.078125 C 338.441406 308.859375 339.492188 309.59375 340.574219 310.285156 C 341.65625 310.976562 342.765625 311.621094 343.902344 312.21875 C 345.039062 312.820312 346.199219 313.367188 347.382812 313.871094 C 348.566406 314.371094 349.769531 314.824219 350.988281 315.222656 C 352.210938 315.625 353.445312 315.972656 354.695312 316.269531 C 355.945312 316.566406 357.207031 316.808594 358.476562 317 C 359.746094 317.191406 361.023438 317.328125 362.304688 317.414062 C 363.585938 317.5 364.871094 317.527344 366.15625 317.503906 C 367.441406 317.480469 368.722656 317.402344 370 317.273438 C 371.277344 317.140625 372.546875 316.957031 373.8125 316.71875 C 375.074219 316.484375 376.324219 316.191406 377.5625 315.851562 C 378.800781 315.507812 380.023438 315.113281 381.226562 314.667969 C 382.433594 314.222656 383.617188 313.730469 384.78125 313.183594 C 385.945312 312.640625 387.085938 312.046875 388.199219 311.410156 C 389.3125 310.769531 390.398438 310.082031 391.453125 309.351562 C 392.511719 308.621094 393.535156 307.847656 394.527344 307.03125 C 404.875 298.617188 410.457031 285.550781 410.675781 272.382812 L 410.675781 272.292969 C 410.660156 271.019531 410.59375 269.75 410.472656 268.480469 C 410.351562 267.214844 410.175781 265.953125 409.953125 264.699219 C 409.726562 263.445312 409.449219 262.207031 409.121094 260.976562 C 408.792969 259.746094 408.414062 258.53125 407.984375 257.332031 C 407.554688 256.132812 407.074219 254.953125 406.546875 253.796875 C 406.019531 252.636719 405.445312 251.5 404.824219 250.390625 C 404.203125 249.28125 403.535156 248.195312 402.824219 247.140625 C 402.113281 246.082031 401.359375 245.058594 400.5625 244.066406 C 399.765625 243.074219 398.929688 242.113281 398.054688 241.191406 C 397.179688 240.265625 396.265625 239.378906 395.316406 238.53125 C 394.367188 237.683594 393.382812 236.875 392.367188 236.109375 C 391.347656 235.34375 390.300781 234.621094 389.226562 233.941406 C 388.148438 233.261719 387.046875 232.628906 385.917969 232.039062 C 384.789062 231.453125 383.636719 230.910156 382.460938 230.417969 C 381.289062 229.925781 380.09375 229.484375 378.882812 229.089844 C 377.671875 228.695312 376.449219 228.355469 375.207031 228.0625 Z M 338.792969 303.261719 C 339.195312 302.804688 337.996094 302.015625 337.617188 301.675781 C 336.234375 300.359375 334.941406 298.953125 333.742188 297.460938 C 332.570312 295.992188 331.507812 294.445312 330.550781 292.828125 C 330.332031 292.457031 328.386719 288.828125 328.21875 289.019531 C 328.398438 288.800781 328.578125 288.589844 328.765625 288.382812 L 353.171875 259.972656 C 360.777344 251.117188 368.386719 242.261719 376 233.40625 C 379.316406 234.347656 382.472656 235.671875 385.476562 237.371094 C 386.492188 237.941406 391.269531 241.597656 391.875 241.449219 C 391.886719 241.449219 391.886719 241.457031 391.894531 241.46875 C 391.199219 242.285156 390.5 243.082031 389.804688 243.890625 C 386.125 248.175781 382.441406 252.464844 378.757812 256.75 C 368.570312 268.613281 358.382812 280.472656 348.195312 292.328125 C 345.265625 295.738281 342.332031 299.144531 339.402344 302.554688 C 339.203125 302.792969 338.996094 303.023438 338.792969 303.261719 Z M 367.921875 232.070312 C 353.917969 248.367188 339.90625 264.671875 325.894531 280.984375 C 325.726562 280.222656 325.582031 279.460938 325.460938 278.691406 C 325.335938 277.921875 325.238281 277.148438 325.160156 276.375 C 325.082031 275.601562 325.023438 274.824219 324.992188 274.046875 C 324.960938 273.269531 324.949219 272.492188 324.960938 271.710938 C 324.972656 270.933594 325.007812 270.15625 325.0625 269.378906 C 325.121094 268.605469 325.199219 267.828125 325.300781 267.058594 C 325.402344 266.285156 325.527344 265.515625 325.675781 264.753906 C 325.820312 263.988281 325.988281 263.226562 326.179688 262.472656 C 326.367188 261.71875 326.582031 260.96875 326.8125 260.226562 C 327.046875 259.484375 327.304688 258.75 327.578125 258.019531 C 327.855469 257.292969 328.152344 256.574219 328.46875 255.863281 C 328.789062 255.152344 329.125 254.453125 329.484375 253.761719 C 329.84375 253.070312 330.21875 252.390625 330.617188 251.71875 C 331.015625 251.050781 331.433594 250.394531 331.867188 249.746094 C 332.304688 249.101562 332.757812 248.472656 333.230469 247.851562 C 333.703125 247.234375 334.191406 246.628906 334.699219 246.039062 C 335.207031 245.449219 335.730469 244.871094 336.273438 244.3125 C 336.8125 243.75 337.371094 243.207031 337.941406 242.679688 C 338.511719 242.152344 339.101562 241.640625 339.703125 241.148438 C 340.304688 240.652344 340.917969 240.175781 341.546875 239.71875 C 342.179688 239.261719 342.820312 238.820312 343.476562 238.398438 C 344.128906 237.976562 344.796875 237.574219 345.472656 237.191406 C 346.152344 236.808594 346.839844 236.449219 347.539062 236.105469 C 348.238281 235.761719 348.945312 235.441406 349.664062 235.136719 C 350.382812 234.835938 351.109375 234.554688 351.84375 234.296875 C 352.574219 234.035156 353.316406 233.796875 354.066406 233.582031 C 354.8125 233.363281 355.566406 233.167969 356.324219 232.996094 C 357.082031 232.824219 357.847656 232.671875 358.613281 232.542969 C 359.382812 232.414062 360.152344 232.308594 360.925781 232.222656 C 361.703125 232.136719 362.476562 232.074219 363.253906 232.035156 C 364.03125 231.996094 364.808594 231.980469 365.589844 231.984375 C 366.367188 231.992188 367.144531 232.019531 367.921875 232.070312 Z M 255.988281 236.585938 C 254.964844 235.804688 253.914062 235.070312 252.832031 234.378906 C 251.75 233.6875 250.640625 233.042969 249.503906 232.441406 C 248.367188 231.84375 247.207031 231.296875 246.023438 230.792969 C 244.839844 230.292969 243.636719 229.84375 242.417969 229.441406 C 241.195312 229.042969 239.960938 228.691406 238.710938 228.394531 C 237.460938 228.097656 236.203125 227.855469 234.929688 227.664062 C 233.660156 227.472656 232.386719 227.335938 231.101562 227.253906 C 229.820312 227.167969 228.539062 227.136719 227.253906 227.164062 C 225.96875 227.1875 224.6875 227.261719 223.410156 227.394531 C 222.132812 227.527344 220.863281 227.710938 219.601562 227.949219 C 218.335938 228.1875 217.085938 228.476562 215.847656 228.820312 C 214.609375 229.160156 213.390625 229.554688 212.183594 230 C 210.980469 230.445312 209.796875 230.941406 208.632812 231.484375 C 207.46875 232.03125 206.328125 232.621094 205.214844 233.261719 C 204.101562 233.902344 203.015625 234.589844 201.960938 235.320312 C 200.902344 236.050781 199.878906 236.824219 198.890625 237.640625 C 188.53125 246.054688 182.949219 259.113281 182.738281 272.292969 L 182.738281 272.371094 C 182.753906 273.644531 182.820312 274.914062 182.941406 276.183594 C 183.0625 277.449219 183.234375 278.710938 183.460938 279.964844 C 183.6875 281.214844 183.960938 282.457031 184.289062 283.6875 C 184.621094 284.917969 184.996094 286.132812 185.425781 287.332031 C 185.855469 288.53125 186.335938 289.710938 186.863281 290.867188 C 187.386719 292.027344 187.960938 293.164062 188.582031 294.273438 C 189.207031 295.386719 189.871094 296.46875 190.582031 297.523438 C 191.292969 298.582031 192.046875 299.605469 192.84375 300.597656 C 193.640625 301.59375 194.476562 302.550781 195.351562 303.472656 C 196.230469 304.398438 197.140625 305.285156 198.089844 306.132812 C 199.042969 306.980469 200.023438 307.789062 201.039062 308.554688 C 202.058594 309.320312 203.105469 310.042969 204.179688 310.722656 C 205.257812 311.402344 206.359375 312.035156 207.488281 312.625 C 208.621094 313.210938 209.769531 313.753906 210.945312 314.246094 C 212.121094 314.738281 213.3125 315.179688 214.523438 315.574219 C 215.734375 315.964844 216.957031 316.308594 218.199219 316.601562 C 238.890625 321.503906 260.261719 310.242188 269.265625 291.359375 C 278.167969 272.722656 272.355469 249.105469 255.988281 236.585938 Z M 201.441406 302.804688 C 201.390625 302.863281 201.332031 302.933594 201.28125 302.996094 C 201.269531 302.996094 201.269531 302.996094 201.269531 302.984375 C 201.621094 302.394531 199.390625 300.679688 198.949219 300.230469 C 196.5 297.675781 194.417969 294.847656 192.707031 291.75 C 192.527344 291.441406 191.023438 288.382812 190.824219 288.609375 C 190.894531 288.519531 190.972656 288.441406 191.042969 288.351562 C 191.980469 287.265625 192.917969 286.175781 193.855469 285.082031 C 203.296875 274.097656 212.730469 263.109375 222.164062 252.125 C 226.609375 246.953125 231.054688 241.78125 235.492188 236.613281 C 236.457031 235.488281 237.425781 234.363281 238.394531 233.246094 C 238.703125 232.875 243.539062 235.03125 244.214844 235.328125 C 247.820312 236.902344 251.117188 238.964844 254.113281 241.511719 C 238.113281 260.121094 222.113281 278.738281 206.117188 297.363281 C 204.851562 298.828125 203.59375 300.304688 202.328125 301.769531 C 202.027344 302.117188 201.738281 302.464844 201.441406 302.804688 Z M 198.203125 245.21875 C 200.21875 243.007812 202.453125 241.042969 204.902344 239.328125 C 207.351562 237.613281 209.960938 236.183594 212.726562 235.046875 C 215.492188 233.90625 218.347656 233.082031 221.296875 232.574219 C 224.246094 232.070312 227.210938 231.890625 230.199219 232.039062 C 216.324219 248.199219 202.449219 264.351562 188.574219 280.496094 C 188.261719 278.945312 188.042969 277.382812 187.914062 275.804688 C 187.785156 274.230469 187.746094 272.648438 187.800781 271.070312 C 187.855469 269.488281 188 267.917969 188.238281 266.351562 C 188.476562 264.789062 188.800781 263.246094 189.21875 261.71875 C 189.632812 260.191406 190.136719 258.695312 190.730469 257.230469 C 191.320312 255.761719 191.992188 254.332031 192.75 252.945312 C 193.503906 251.554688 194.339844 250.214844 195.25 248.921875 C 196.164062 247.628906 197.148438 246.394531 198.203125 245.21875 Z M 433.972656 249.074219 C 431.261719 248.207031 428.488281 247.792969 425.644531 247.832031 C 423.851562 247.828125 422.070312 247.980469 420.304688 248.300781 C 419.230469 245.878906 418.003906 243.542969 416.625 241.285156 C 415.242188 239.023438 413.722656 236.867188 412.0625 234.804688 C 410.398438 232.746094 408.609375 230.804688 406.691406 228.976562 C 404.777344 227.152344 402.75 225.457031 400.613281 223.898438 C 398.476562 222.335938 396.246094 220.921875 393.921875 219.652344 C 391.601562 218.382812 389.207031 217.269531 386.738281 216.3125 C 384.269531 215.355469 381.75 214.5625 379.179688 213.933594 C 376.609375 213.308594 374.007812 212.851562 371.375 212.5625 C 369.257812 212.316406 367.128906 212.195312 364.996094 212.195312 C 344.609375 212.195312 325.183594 223.261719 314.023438 241.160156 C 308.644531 240.394531 303.242188 239.925781 297.808594 239.746094 C 297.726562 239.746094 297.640625 239.746094 297.558594 239.753906 C 297.4375 239.730469 297.3125 239.71875 297.1875 239.714844 C 297.179688 239.714844 296.273438 239.734375 296.273438 239.734375 C 296.148438 239.734375 296.023438 239.742188 295.898438 239.761719 C 295.78125 239.75 295.652344 239.746094 295.511719 239.746094 L 295.492188 239.746094 C 290.097656 239.929688 284.726562 240.402344 279.378906 241.160156 C 278.027344 238.957031 276.539062 236.851562 274.917969 234.839844 C 273.292969 232.828125 271.550781 230.929688 269.683594 229.140625 C 267.820312 227.351562 265.847656 225.691406 263.765625 224.15625 C 261.6875 222.621094 259.519531 221.222656 257.261719 219.964844 C 255.003906 218.707031 252.675781 217.597656 250.277344 216.636719 C 247.878906 215.679688 245.425781 214.875 242.925781 214.230469 C 240.421875 213.585938 237.890625 213.101562 235.324219 212.777344 C 232.761719 212.457031 230.1875 212.300781 227.601562 212.308594 C 225.769531 212.308594 223.910156 212.394531 222.074219 212.558594 C 201.195312 214.4375 182.121094 228.40625 173.101562 248.296875 C 171.410156 248.011719 169.707031 247.871094 167.992188 247.878906 C 165.601562 247.878906 163.238281 248.113281 160.894531 248.582031 C 153.652344 250.066406 151.070312 257.246094 151.070312 263.46875 L 151.070312 264.109375 C 151.0625 269.109375 151.050781 275.328125 156.464844 278.988281 C 160.03125 281.398438 164.117188 281.707031 167.277344 281.707031 C 167.78125 281.707031 168.285156 281.699219 168.789062 281.683594 C 173.746094 310.695312 199.214844 332.382812 228.683594 332.382812 C 229.429688 332.382812 230.179688 332.367188 230.929688 332.339844 C 260.621094 331.261719 285.433594 306.902344 287.960938 276.636719 C 290.761719 276.035156 293.589844 275.640625 296.449219 275.449219 L 296.699219 275.425781 C 296.707031 275.425781 296.980469 275.449219 296.980469 275.449219 C 299.828125 275.640625 302.648438 276.035156 305.4375 276.636719 C 305.589844 278.441406 305.820312 280.234375 306.132812 282.015625 C 306.445312 283.800781 306.835938 285.566406 307.308594 287.316406 C 307.777344 289.0625 308.324219 290.789062 308.949219 292.488281 C 309.570312 294.1875 310.269531 295.859375 311.042969 297.496094 C 311.8125 299.132812 312.65625 300.734375 313.574219 302.296875 C 314.488281 303.859375 315.46875 305.378906 316.519531 306.851562 C 317.570312 308.328125 318.683594 309.753906 319.863281 311.128906 C 321.039062 312.503906 322.277344 313.824219 323.570312 315.089844 C 324.867188 316.355469 326.214844 317.5625 327.617188 318.707031 C 329.019531 319.851562 330.46875 320.933594 331.96875 321.949219 C 333.46875 322.964844 335.007812 323.914062 336.589844 324.792969 C 338.175781 325.671875 339.792969 326.476562 341.449219 327.214844 C 343.105469 327.949219 344.789062 328.605469 346.503906 329.191406 C 348.214844 329.777344 349.953125 330.28125 351.710938 330.710938 C 353.472656 331.140625 355.246094 331.492188 357.035156 331.765625 C 358.828125 332.035156 360.625 332.226562 362.433594 332.339844 C 363.589844 332.410156 364.742188 332.441406 365.886719 332.441406 C 394.679688 332.441406 419.65625 310.730469 424.617188 281.679688 C 425.09375 281.691406 425.574219 281.699219 426.054688 281.699219 C 428.789062 281.699219 432.359375 281.488281 435.691406 279.820312 C 442.347656 276.480469 442.347656 269.363281 442.347656 263.46875 C 442.347656 256.0625 439.371094 250.949219 433.972656 249.074219 Z M 420.324219 278.300781 C 416.925781 307.308594 391.617188 328.640625 362.539062 327.585938 C 333.960938 326.550781 311.25 302.1875 310.035156 274.125 C 310.03125 273.792969 309.925781 273.492188 309.722656 273.222656 C 309.519531 272.957031 309.261719 272.777344 308.941406 272.679688 C 305.042969 271.375 300.945312 271.054688 296.878906 270.675781 C 296.824219 270.667969 296.773438 270.667969 296.71875 270.667969 L 296.699219 270.667969 C 296.644531 270.667969 296.59375 270.667969 296.539062 270.675781 C 292.460938 271.054688 288.363281 271.375 284.464844 272.679688 C 284.144531 272.777344 283.882812 272.957031 283.683594 273.226562 C 283.480469 273.492188 283.378906 273.792969 283.371094 274.125 C 283.296875 275.835938 283.144531 277.539062 282.910156 279.234375 C 282.679688 280.929688 282.375 282.609375 281.988281 284.277344 C 281.601562 285.945312 281.144531 287.589844 280.605469 289.214844 C 280.070312 290.839844 279.460938 292.4375 278.78125 294.007812 C 278.097656 295.578125 277.34375 297.113281 276.523438 298.613281 C 275.699219 300.113281 274.808594 301.570312 273.851562 302.992188 C 272.898438 304.410156 271.878906 305.78125 270.792969 307.105469 C 269.710938 308.433594 268.570312 309.707031 267.371094 310.925781 C 266.171875 312.148438 264.921875 313.3125 263.617188 314.417969 C 262.308594 315.523438 260.957031 316.566406 259.554688 317.550781 C 258.152344 318.53125 256.710938 319.445312 255.226562 320.296875 C 253.742188 321.144531 252.21875 321.925781 250.664062 322.636719 C 249.105469 323.347656 247.519531 323.984375 245.90625 324.550781 C 244.289062 325.117188 242.652344 325.605469 240.992188 326.019531 C 239.332031 326.433594 237.65625 326.773438 235.964844 327.035156 C 234.273438 327.296875 232.574219 327.480469 230.867188 327.585938 C 201.851562 329.351562 176.421875 306.792969 173.082031 278.300781 C 173.078125 278.105469 173.039062 277.914062 172.964844 277.734375 C 172.886719 277.550781 172.777344 277.390625 172.636719 277.25 C 172.5 277.109375 172.335938 277 172.15625 276.925781 C 171.972656 276.847656 171.78125 276.808594 171.585938 276.804688 C 169.164062 276.925781 166.71875 276.816406 164.296875 276.816406 C 156.890625 276.816406 155.824219 270.066406 155.824219 264.386719 C 155.824219 258.785156 157.582031 252.894531 164.457031 252.894531 C 167.796875 252.894531 171.386719 252.496094 174.609375 253.570312 C 174.796875 253.621094 174.992188 253.632812 175.1875 253.605469 C 175.382812 253.578125 175.566406 253.515625 175.734375 253.417969 C 175.90625 253.320312 176.054688 253.195312 176.175781 253.039062 C 176.296875 252.886719 176.386719 252.714844 176.441406 252.523438 C 177.390625 250.113281 178.503906 247.777344 179.777344 245.519531 C 181.054688 243.261719 182.476562 241.105469 184.050781 239.042969 C 185.625 236.984375 187.332031 235.039062 189.175781 233.214844 C 191.015625 231.390625 192.976562 229.703125 195.050781 228.152344 C 197.128906 226.597656 199.300781 225.195312 201.570312 223.941406 C 203.839844 222.691406 206.1875 221.601562 208.609375 220.671875 C 211.027344 219.746094 213.5 218.988281 216.027344 218.402344 C 218.554688 217.816406 221.105469 217.410156 223.6875 217.175781 C 245.222656 215.242188 265.746094 226.933594 276.402344 245.425781 C 276.578125 245.710938 276.824219 245.917969 277.136719 246.042969 C 277.449219 246.171875 277.769531 246.195312 278.09375 246.113281 C 283.878906 245.25 289.695312 244.710938 295.542969 244.5 C 295.664062 244.496094 295.785156 244.476562 295.90625 244.445312 C 296.359375 244.476562 296.8125 244.445312 297.261719 244.355469 C 297.453125 244.445312 297.652344 244.492188 297.863281 244.5 C 303.710938 244.710938 309.53125 245.246094 315.316406 246.113281 C 315.644531 246.195312 315.960938 246.171875 316.273438 246.042969 C 316.582031 245.917969 316.828125 245.710938 317.003906 245.425781 C 318.308594 243.140625 319.765625 240.957031 321.375 238.875 C 322.984375 236.792969 324.734375 234.832031 326.617188 232.996094 C 328.503906 231.160156 330.507812 229.460938 332.632812 227.90625 C 334.753906 226.351562 336.976562 224.953125 339.296875 223.710938 C 341.617188 222.464844 344.011719 221.390625 346.484375 220.484375 C 348.957031 219.578125 351.476562 218.847656 354.050781 218.296875 C 356.625 217.742188 359.222656 217.375 361.847656 217.1875 C 364.476562 217 367.101562 216.996094 369.726562 217.175781 C 390.828125 218.53125 409.277344 233.125 416.96875 252.523438 C 417.023438 252.714844 417.113281 252.886719 417.234375 253.042969 C 417.355469 253.199219 417.503906 253.324219 417.675781 253.421875 C 417.847656 253.519531 418.03125 253.582031 418.226562 253.605469 C 418.425781 253.632812 418.617188 253.621094 418.808594 253.570312 C 422.019531 252.496094 425.609375 252.894531 428.949219 252.894531 C 435.835938 252.894531 437.59375 258.785156 437.59375 264.386719 C 437.59375 270.335938 436.492188 276.320312 429.117188 276.816406 C 426.683594 276.953125 424.253906 276.949219 421.820312 276.804688 C 421.625 276.808594 421.433594 276.847656 421.253906 276.925781 C 421.070312 277 420.910156 277.109375 420.769531 277.25 C 420.628906 277.390625 420.519531 277.550781 420.445312 277.734375 C 420.367188 277.914062 420.328125 278.105469 420.324219 278.300781 Z M 420.324219 278.300781 " fill-opacity="1" fill-rule="nonzero"/></g><g clip-path="url(#291aae237c)"><g clip-path="url(#2c0a7da86b)"><g transform="matrix(1, 0, 0, 1, 324, 230)"><g clip-path="url(#37e05252d3)"><g clip-path="url(#7cace0a2af)"><g clip-path="url(#3d31edc42d)"><path fill="#ecd11e" d="M 0.015625 0.8125 L 83.003906 0.8125 L 83.003906 83.800781 L 0.015625 83.800781 Z M 0.015625 0.8125 " fill-opacity="1" fill-rule="nonzero"/></g></g></g></g></g></g><g clip-path="url(#5e7493b8dc)"><g clip-path="url(#7a36737c79)"><g transform="matrix(1, 0, 0, 1, 186, 230)"><g clip-path="url(#d607c96ff4)"><g clip-path="url(#f553ec7105)"><g clip-path="url(#ad07ae205a)"><path fill="#ecd11e" d="M 0.410156 0.8125 L 83.398438 0.8125 L 83.398438 83.800781 L 0.410156 83.800781 Z M 0.410156 0.8125 " fill-opacity="1" fill-rule="nonzero"/></g></g></g></g></g></g><g clip-path="url(#1e6ed5955f)"><path fill="#000000" d="M 193.054688 249.527344 C 193.992188 248.621094 194.941406 247.726562 195.859375 246.804688 C 199.351562 243.300781 202.824219 239.78125 206.339844 236.300781 C 206.683594 235.960938 207.253906 235.664062 207.71875 235.664062 C 225.75 235.632812 243.78125 235.621094 261.8125 235.636719 C 262.023438 235.636719 262.234375 235.664062 262.597656 235.6875 C 262.371094 235.964844 262.242188 236.15625 262.082031 236.320312 C 257.804688 240.628906 253.519531 244.929688 249.230469 249.222656 C 248.890625 249.5625 248.296875 249.8125 247.820312 249.8125 C 229.863281 249.84375 211.902344 249.851562 193.945312 249.835938 C 193.699219 249.835938 193.453125 249.804688 193.210938 249.789062 Z M 193.054688 249.527344 " fill-opacity="1" fill-rule="nonzero"/></g><g clip-path="url(#a27db0ab0e)"><path fill="#000000" d="M 262.644531 271.933594 L 261.289062 271.933594 C 243.578125 271.933594 225.867188 271.9375 208.15625 271.953125 C 207.285156 271.953125 206.691406 271.679688 206.082031 271.0625 C 202.058594 266.957031 197.992188 262.898438 193.941406 258.820312 C 193.667969 258.542969 193.40625 258.253906 192.984375 257.804688 C 193.546875 257.777344 193.921875 257.742188 194.296875 257.738281 C 212.042969 257.738281 229.789062 257.730469 247.535156 257.71875 C 248.371094 257.71875 248.945312 257.984375 249.519531 258.574219 C 253.808594 262.972656 258.128906 267.34375 262.644531 271.933594 Z M 262.644531 271.933594 " fill-opacity="1" fill-rule="nonzero"/></g><g clip-path="url(#f3004aa5cf)"><path fill="#000000" d="M 262.601562 279.945312 C 262.273438 280.3125 262.078125 280.558594 261.859375 280.777344 C 257.679688 284.984375 253.511719 289.195312 249.300781 293.367188 C 248.9375 293.726562 248.316406 294.007812 247.816406 294.007812 C 229.855469 294.039062 211.890625 294.050781 193.929688 294.035156 C 193.6875 294.035156 193.441406 294.007812 193.03125 293.984375 C 193.316406 293.652344 193.503906 293.410156 193.714844 293.195312 C 197.914062 288.964844 202.109375 284.726562 206.339844 280.527344 C 206.703125 280.167969 207.332031 279.886719 207.835938 279.886719 C 225.722656 279.855469 243.613281 279.847656 261.503906 279.863281 C 261.808594 279.863281 262.117188 279.90625 262.601562 279.945312 Z M 262.601562 279.945312 " fill-opacity="1" fill-rule="nonzero"/></g><g clip-path="url(#9887185221)"><path fill="#000000" d="M 331.160156 249.527344 C 332.097656 248.621094 333.046875 247.726562 333.96875 246.804688 C 337.460938 243.300781 340.933594 239.78125 344.445312 236.300781 C 344.789062 235.960938 345.359375 235.664062 345.824219 235.664062 C 363.855469 235.632812 381.890625 235.621094 399.921875 235.636719 C 400.128906 235.636719 400.339844 235.664062 400.707031 235.6875 C 400.480469 235.964844 400.347656 236.15625 400.1875 236.320312 C 395.910156 240.628906 391.628906 244.929688 387.335938 249.222656 C 386.996094 249.5625 386.402344 249.8125 385.929688 249.8125 C 367.96875 249.84375 350.007812 249.851562 332.050781 249.835938 C 331.804688 249.835938 331.5625 249.804688 331.316406 249.789062 Z M 331.160156 249.527344 " fill-opacity="1" fill-rule="nonzero"/></g><g clip-path="url(#94d2b2de6e)"><path fill="#000000" d="M 400.75 271.933594 L 399.398438 271.933594 C 381.6875 271.933594 363.976562 271.9375 346.265625 271.953125 C 345.394531 271.953125 344.796875 271.679688 344.1875 271.0625 C 340.164062 266.957031 336.097656 262.898438 332.050781 258.820312 C 331.773438 258.542969 331.511719 258.253906 331.089844 257.804688 C 331.652344 257.777344 332.027344 257.742188 332.402344 257.738281 C 350.148438 257.738281 367.894531 257.730469 385.644531 257.71875 C 386.476562 257.71875 387.050781 257.984375 387.625 258.574219 C 391.914062 262.972656 396.234375 267.34375 400.75 271.933594 Z M 400.75 271.933594 " fill-opacity="1" fill-rule="nonzero"/></g><g clip-path="url(#af2b7c3f0b)"><path fill="#000000" d="M 400.707031 279.945312 C 400.382812 280.3125 400.1875 280.558594 399.964844 280.777344 C 395.789062 284.984375 391.617188 289.195312 387.40625 293.367188 C 387.046875 293.726562 386.421875 294.007812 385.921875 294.007812 C 367.960938 294.039062 350 294.050781 332.039062 294.035156 C 331.792969 294.035156 331.546875 294.007812 331.136719 293.984375 C 331.425781 293.652344 331.609375 293.410156 331.820312 293.195312 C 336.023438 288.964844 340.214844 284.726562 344.449219 280.527344 C 344.8125 280.167969 345.4375 279.886719 345.941406 279.886719 C 363.832031 279.855469 381.71875 279.847656 399.609375 279.863281 C 399.917969 279.863281 400.222656 279.90625 400.707031 279.945312 Z M 400.707031 279.945312 " fill-opacity="1" fill-rule="nonzero"/></g></g></g></svg>