<svg xmlns="http://www.w3.org/2000/svg" xmlns:xlink="http://www.w3.org/1999/xlink" width="766" zoomAndPan="magnify" viewBox="0 0 574.5 205.499994" height="274" preserveAspectRatio="xMidYMid meet" version="1.0"><defs><g/><clipPath id="cb4615e51f"><path d="M 0.449219 0 L 521 0 L 521 200 L 0.449219 200 Z M 0.449219 0 " clip-rule="nonzero"/></clipPath><clipPath id="7fd977e281"><path d="M 0.449219 0 L 205.085938 0 L 205.085938 142.261719 L 0.449219 142.261719 Z M 0.449219 0 " clip-rule="nonzero"/></clipPath><clipPath id="627c00082b"><path d="M 163 49 L 520.222656 49 L 520.222656 159 L 163 159 Z M 163 49 " clip-rule="nonzero"/></clipPath><clipPath id="09a244cd46"><rect x="0" width="358" y="0" height="110"/></clipPath><clipPath id="75c1f31b75"><path d="M 311 134 L 514 134 L 514 199.914062 L 311 199.914062 Z M 311 134 " clip-rule="nonzero"/></clipPath><clipPath id="3a502f9111"><path d="M 61 34 L 87 34 L 87 65.914062 L 61 65.914062 Z M 61 34 " clip-rule="nonzero"/></clipPath><clipPath id="fef8a979b6"><rect x="0" width="203" y="0" height="66"/></clipPath><clipPath id="f523da3632"><path d="M 52.519531 54.378906 L 153.574219 54.378906 L 153.574219 155.433594 L 52.519531 155.433594 Z M 52.519531 54.378906 " clip-rule="nonzero"/></clipPath><clipPath id="c2938dba08"><path d="M 103.046875 54.378906 C 75.140625 54.378906 52.519531 77 52.519531 104.90625 C 52.519531 132.8125 75.140625 155.433594 103.046875 155.433594 C 130.953125 155.433594 153.574219 132.8125 153.574219 104.90625 C 153.574219 77 130.953125 54.378906 103.046875 54.378906 Z M 103.046875 54.378906 " clip-rule="nonzero"/></clipPath><clipPath id="32d30f18fe"><path d="M 0.519531 0.378906 L 101.574219 0.378906 L 101.574219 101.433594 L 0.519531 101.433594 Z M 0.519531 0.378906 " clip-rule="nonzero"/></clipPath><clipPath id="4ee2c741a1"><path d="M 51.046875 0.378906 C 23.140625 0.378906 0.519531 23 0.519531 50.90625 C 0.519531 78.8125 23.140625 101.433594 51.046875 101.433594 C 78.953125 101.433594 101.574219 78.8125 101.574219 50.90625 C 101.574219 23 78.953125 0.378906 51.046875 0.378906 Z M 51.046875 0.378906 " clip-rule="nonzero"/></clipPath><clipPath id="d42b679cfd"><rect x="0" width="102" y="0" height="102"/></clipPath><clipPath id="38605e3ef2"><path d="M 52.519531 74.796875 L 152.101562 74.796875 L 152.101562 115.835938 L 52.519531 115.835938 Z M 52.519531 74.796875 " clip-rule="nonzero"/></clipPath><clipPath id="a48473a379"><path d="M 111.796875 81.191406 L 140.242188 81.191406 L 140.242188 109.636719 L 111.796875 109.636719 Z M 111.796875 81.191406 " clip-rule="nonzero"/></clipPath><clipPath id="116c75f766"><path d="M 126.019531 81.191406 C 118.164062 81.191406 111.796875 87.558594 111.796875 95.414062 C 111.796875 103.269531 118.164062 109.636719 126.019531 109.636719 C 133.875 109.636719 140.242188 103.269531 140.242188 95.414062 C 140.242188 87.558594 133.875 81.191406 126.019531 81.191406 Z M 126.019531 81.191406 " clip-rule="nonzero"/></clipPath><clipPath id="faebe05b08"><path d="M 0.796875 0.191406 L 29.242188 0.191406 L 29.242188 28.636719 L 0.796875 28.636719 Z M 0.796875 0.191406 " clip-rule="nonzero"/></clipPath><clipPath id="f5fc73a753"><path d="M 15.019531 0.191406 C 7.164062 0.191406 0.796875 6.558594 0.796875 14.414062 C 0.796875 22.269531 7.164062 28.636719 15.019531 28.636719 C 22.875 28.636719 29.242188 22.269531 29.242188 14.414062 C 29.242188 6.558594 22.875 0.191406 15.019531 0.191406 Z M 15.019531 0.191406 " clip-rule="nonzero"/></clipPath><clipPath id="d06ba86ad1"><rect x="0" width="30" y="0" height="29"/></clipPath><clipPath id="dc27bc6293"><path d="M 64.632812 81.191406 L 93.078125 81.191406 L 93.078125 109.636719 L 64.632812 109.636719 Z M 64.632812 81.191406 " clip-rule="nonzero"/></clipPath><clipPath id="5dd40edde0"><path d="M 78.855469 81.191406 C 71 81.191406 64.632812 87.558594 64.632812 95.414062 C 64.632812 103.269531 71 109.636719 78.855469 109.636719 C 86.710938 109.636719 93.078125 103.269531 93.078125 95.414062 C 93.078125 87.558594 86.710938 81.191406 78.855469 81.191406 Z M 78.855469 81.191406 " clip-rule="nonzero"/></clipPath><clipPath id="03ee93ee29"><path d="M 0.632812 0.191406 L 29.078125 0.191406 L 29.078125 28.636719 L 0.632812 28.636719 Z M 0.632812 0.191406 " clip-rule="nonzero"/></clipPath><clipPath id="3dffd4e36a"><path d="M 14.855469 0.191406 C 7 0.191406 0.632812 6.558594 0.632812 14.414062 C 0.632812 22.269531 7 28.636719 14.855469 28.636719 C 22.710938 28.636719 29.078125 22.269531 29.078125 14.414062 C 29.078125 6.558594 22.710938 0.191406 14.855469 0.191406 Z M 14.855469 0.191406 " clip-rule="nonzero"/></clipPath><clipPath id="8cff0a2241"><rect x="0" width="30" y="0" height="29"/></clipPath><clipPath id="08a47bf0e8"><path d="M 66.882812 82.835938 L 90.957031 82.835938 L 90.957031 88 L 66.882812 88 Z M 66.882812 82.835938 " clip-rule="nonzero"/></clipPath><clipPath id="0705734e4c"><path d="M 66.882812 90 L 90.957031 90 L 90.957031 96 L 66.882812 96 Z M 66.882812 90 " clip-rule="nonzero"/></clipPath><clipPath id="d94c4eff60"><path d="M 66.882812 97 L 90.957031 97 L 90.957031 102.535156 L 66.882812 102.535156 Z M 66.882812 97 " clip-rule="nonzero"/></clipPath><clipPath id="3a6b82b5ef"><path d="M 114.21875 82.835938 L 138.292969 82.835938 L 138.292969 88 L 114.21875 88 Z M 114.21875 82.835938 " clip-rule="nonzero"/></clipPath><clipPath id="ed76d903ac"><path d="M 114.21875 90 L 138.292969 90 L 138.292969 96 L 114.21875 96 Z M 114.21875 90 " clip-rule="nonzero"/></clipPath><clipPath id="b203f64c91"><path d="M 114.21875 97 L 138.292969 97 L 138.292969 102.535156 L 114.21875 102.535156 Z M 114.21875 97 " clip-rule="nonzero"/></clipPath><clipPath id="9a283a1b5c"><path d="M 70 117 L 136 117 L 136 139.53125 L 70 139.53125 Z M 70 117 " clip-rule="nonzero"/></clipPath><clipPath id="edef9d1e2e"><path d="M 128 115.457031 L 138.785156 115.457031 L 138.785156 126 L 128 126 Z M 128 115.457031 " clip-rule="nonzero"/></clipPath><clipPath id="4b06283142"><path d="M 67.109375 115.457031 L 77 115.457031 L 77 126 L 67.109375 126 Z M 67.109375 115.457031 " clip-rule="nonzero"/></clipPath><clipPath id="2f1bc1d0ab"><rect x="0" width="521" y="0" height="200"/></clipPath></defs><g clip-path="url(#cb4615e51f)"><g transform="matrix(1, 0, 0, 1, -0.000000000000000056, 0)"><g clip-path="url(#2f1bc1d0ab)"><g clip-path="url(#7fd977e281)"><path fill="#2a2b2b" d="M 99.738281 45.546875 L 99.738281 3.132812 C 99.738281 1.4375 101.085938 0.0859375 102.753906 0.0859375 C 104.425781 0.0859375 105.792969 1.4375 105.792969 3.132812 L 105.792969 45.546875 C 105.792969 47.21875 104.445312 48.59375 102.753906 48.59375 C 101.085938 48.59375 99.738281 47.242188 99.738281 45.546875 Z M 70.078125 31.457031 L 78.191406 51.058594 C 78.832031 52.601562 80.609375 53.351562 82.148438 52.710938 C 83.6875 52.066406 84.4375 50.285156 83.796875 48.742188 L 75.6875 29.144531 C 75.042969 27.597656 73.269531 26.847656 71.726562 27.492188 C 70.164062 28.136719 69.4375 29.914062 70.078125 31.457031 C 70.058594 31.457031 70.058594 31.457031 70.078125 31.457031 Z M 29.441406 75.484375 L 49 83.589844 C 50.542969 84.234375 52.320312 83.503906 52.960938 81.9375 C 53.601562 80.394531 52.875 78.613281 51.3125 77.972656 L 31.753906 69.84375 C 30.214844 69.199219 28.4375 69.929688 27.796875 71.496094 C 27.152344 73.058594 27.882812 74.839844 29.441406 75.484375 Z M 173.757812 69.84375 L 154.199219 77.972656 C 152.65625 78.613281 151.910156 80.394531 152.550781 81.9375 C 153.191406 83.480469 154.96875 84.234375 156.507812 83.589844 L 176.066406 75.460938 C 177.609375 74.820312 178.359375 73.039062 177.714844 71.496094 C 177.09375 69.929688 175.320312 69.199219 173.757812 69.84375 Z M 123.382812 52.710938 C 124.925781 53.351562 126.699219 52.625 127.34375 51.058594 L 135.429688 31.457031 C 136.074219 29.914062 135.347656 28.136719 133.785156 27.492188 C 132.242188 26.847656 130.46875 27.578125 129.824219 29.144531 L 121.734375 48.742188 C 121.09375 50.285156 121.820312 52.066406 123.382812 52.710938 Z M 60.34375 64.417969 C 61.519531 65.597656 63.445312 65.597656 64.644531 64.417969 C 65.820312 63.238281 65.820312 61.308594 64.644531 60.128906 L 34.707031 30.109375 C 33.53125 28.929688 31.605469 28.929688 30.425781 30.109375 C 29.25 31.289062 29.25 33.21875 30.425781 34.398438 Z M 45.8125 105.65625 C 47.480469 105.65625 48.851562 104.304688 48.851562 102.609375 C 48.851562 100.9375 47.503906 99.566406 45.8125 99.566406 L 3.488281 99.566406 C 1.796875 99.585938 0.449219 100.9375 0.449219 102.609375 C 0.449219 104.28125 1.796875 105.65625 3.488281 105.65625 Z M 202.046875 99.585938 L 159.699219 99.566406 C 158.027344 99.566406 156.660156 100.917969 156.660156 102.609375 C 156.660156 104.28125 158.007812 105.65625 159.699219 105.65625 L 202.046875 105.65625 C 203.714844 105.65625 205.085938 104.304688 205.085938 102.609375 C 205.085938 100.9375 203.714844 99.585938 202.046875 99.585938 Z M 140.886719 64.417969 C 142.085938 65.621094 143.992188 65.621094 145.1875 64.417969 L 175.125 34.417969 C 176.304688 33.238281 176.304688 31.308594 175.125 30.128906 C 173.949219 28.949219 172.023438 28.949219 170.847656 30.128906 L 140.886719 60.109375 C 139.691406 61.289062 139.691406 63.21875 140.886719 64.417969 C 140.867188 64.417969 140.886719 64.417969 140.886719 64.417969 Z M 149.167969 105.675781 C 149.234375 104.667969 149.277344 103.640625 149.277344 102.632812 C 149.277344 90.171875 144.441406 78.484375 135.644531 69.671875 C 126.851562 60.859375 115.1875 56.011719 102.753906 56.011719 C 90.324219 56.011719 78.660156 60.859375 69.867188 69.671875 C 61.070312 78.484375 56.234375 90.171875 56.234375 102.632812 C 56.234375 103.660156 56.277344 104.667969 56.339844 105.675781 L 62.417969 105.675781 C 62.355469 104.667969 62.3125 103.660156 62.3125 102.632812 C 62.3125 80.246094 80.414062 62.101562 102.753906 62.101562 C 125.097656 62.101562 143.199219 80.246094 143.199219 102.632812 C 143.199219 103.660156 143.15625 104.667969 143.09375 105.675781 Z M 180.882812 111.746094 L 24.648438 111.746094 C 22.980469 111.746094 21.609375 113.117188 21.609375 114.789062 C 21.609375 116.464844 22.960938 117.835938 24.648438 117.835938 L 180.882812 117.835938 C 182.550781 117.835938 183.921875 116.484375 183.921875 114.789062 C 183.921875 113.097656 182.550781 111.746094 180.882812 111.746094 Z M 156.679688 123.90625 L 48.851562 123.90625 C 47.183594 123.90625 45.8125 125.253906 45.8125 126.949219 C 45.8125 128.621094 47.160156 129.996094 48.851562 129.996094 L 156.679688 129.996094 C 158.351562 129.996094 159.71875 128.644531 159.71875 126.949219 C 159.699219 125.277344 158.351562 123.90625 156.679688 123.90625 Z M 128.582031 136.085938 L 76.925781 136.085938 C 75.257812 136.085938 73.886719 137.4375 73.886719 139.128906 C 73.886719 140.800781 75.238281 142.175781 76.925781 142.175781 L 128.582031 142.175781 C 130.253906 142.175781 131.601562 140.800781 131.601562 139.128906 C 131.621094 137.4375 130.273438 136.085938 128.582031 136.085938 Z M 128.582031 136.085938 " fill-opacity="1" fill-rule="nonzero"/></g><g clip-path="url(#627c00082b)"><g transform="matrix(1, 0, 0, 1, 163, 49)"><g clip-path="url(#09a244cd46)"><g fill="#ecd11e" fill-opacity="1"><g transform="translate(4.002973, 93.915608)"><g><path d="M 30.390625 -2.925781 C 38.277344 -2.839844 44.230469 -4.355469 48.257812 -7.476562 C 52 -10.378906 53.867188 -14.679688 53.867188 -20.378906 C 53.867188 -23.460938 53.191406 -26.003906 51.839844 -28.015625 C 50.34375 -30.238281 48.414062 -32.128906 46.046875 -33.679688 C 43.453125 -35.375 40.683594 -36.828125 37.726562 -38.039062 C 34.613281 -39.3125 31.695312 -40.417969 28.96875 -41.359375 C 26.003906 -42.382812 23.550781 -43.390625 21.605469 -44.386719 C 18.449219 -46.007812 16.871094 -48.167969 16.871094 -50.871094 C 16.871094 -52.40625 17.25 -53.789062 18.007812 -55.011719 C 18.742188 -56.203125 19.785156 -57.164062 21.140625 -57.894531 C 23.21875 -59.015625 26.097656 -59.578125 29.769531 -59.578125 C 33.507812 -59.578125 36.652344 -58.472656 39.195312 -56.265625 C 41.683594 -54.101562 43.300781 -51.097656 44.046875 -47.253906 L 40.320312 -46.535156 L 39.230469 -50.167969 L 55.128906 -54.9375 L 56.21875 -51.304688 L 52.507812 -50.503906 C 51.152344 -56.777344 48.546875 -61.515625 44.691406 -64.714844 C 40.863281 -67.890625 35.890625 -69.476562 29.769531 -69.476562 C 21.875 -69.476562 15.9375 -67.914062 11.949219 -64.792969 C 8.246094 -61.890625 6.394531 -57.636719 6.394531 -52.027344 C 6.394531 -49.039062 7.070312 -46.542969 8.421875 -44.535156 C 9.910156 -42.320312 11.828125 -40.464844 14.179688 -38.964844 C 16.757812 -37.320312 19.496094 -35.941406 22.390625 -34.828125 C 25.480469 -33.640625 28.398438 -32.570312 31.152344 -31.621094 C 34.167969 -30.582031 36.667969 -29.5 38.652344 -28.375 C 41.714844 -26.632812 43.246094 -24.355469 43.246094 -21.53125 C 43.246094 -20 42.859375 -18.628906 42.085938 -17.410156 C 41.34375 -16.246094 40.292969 -15.304688 38.9375 -14.597656 C 36.867188 -13.511719 34.007812 -12.96875 30.347656 -12.96875 C 26.6875 -12.96875 23.605469 -14.085938 21.105469 -16.316406 C 18.765625 -18.402344 17.109375 -21.203125 16.140625 -24.714844 L 19.800781 -25.722656 L 20.898438 -22.09375 L 5.144531 -17.324219 L 4.046875 -20.957031 L 7.753906 -21.765625 C 9.109375 -15.574219 11.722656 -10.851562 15.59375 -7.601562 C 19.398438 -4.402344 24.300781 -2.84375 30.296875 -2.925781 Z M 30.308594 4.660156 L 30.347656 0.867188 L 30.402344 4.660156 C 22.523438 4.769531 15.960938 2.617188 10.710938 -1.792969 C 5.523438 -6.152344 2.066406 -12.269531 0.339844 -20.144531 L -0.410156 -23.570312 L 22.421875 -30.480469 L 23.457031 -26.734375 C 24.027344 -24.65625 24.929688 -23.074219 26.152344 -21.980469 C 27.214844 -21.03125 28.613281 -20.558594 30.347656 -20.558594 C 32.761719 -20.558594 34.449219 -20.8125 35.417969 -21.316406 C 35.53125 -21.375 35.617188 -21.433594 35.679688 -21.484375 L 35.683594 -21.484375 C 35.667969 -21.457031 35.65625 -21.433594 35.652344 -21.414062 C 35.65625 -21.433594 35.660156 -21.472656 35.660156 -21.53125 C 35.660156 -21.359375 35.691406 -21.230469 35.757812 -21.144531 C 35.628906 -21.316406 35.34375 -21.527344 34.90625 -21.773438 C 33.328125 -22.671875 31.25 -23.5625 28.679688 -24.449219 C 25.84375 -25.429688 22.839844 -26.527344 19.664062 -27.746094 C 16.296875 -29.042969 13.109375 -30.652344 10.097656 -32.570312 C 6.859375 -34.636719 4.203125 -37.210938 2.128906 -40.296875 C -0.0859375 -43.589844 -1.191406 -47.496094 -1.191406 -52.027344 C -1.191406 -60.097656 1.628906 -66.34375 7.269531 -70.765625 C 12.628906 -74.964844 20.128906 -77.0625 29.769531 -77.0625 C 37.714844 -77.0625 44.304688 -74.894531 49.535156 -70.554688 C 54.734375 -66.238281 58.199219 -60.089844 59.925781 -52.105469 L 60.667969 -48.679688 L 37.394531 -41.695312 L 36.597656 -45.8125 C 36.183594 -47.945312 35.390625 -49.519531 34.21875 -50.535156 C 33.101562 -51.503906 31.621094 -51.992188 29.769531 -51.992188 C 27.375 -51.992188 25.699219 -51.734375 24.742188 -51.21875 C 24.582031 -51.128906 24.488281 -51.066406 24.460938 -51.027344 C 24.46875 -51.039062 24.472656 -51.046875 24.476562 -51.050781 C 24.464844 -51.011719 24.460938 -50.949219 24.460938 -50.871094 C 24.460938 -51.230469 24.375 -51.507812 24.210938 -51.699219 C 24.332031 -51.558594 24.621094 -51.371094 25.074219 -51.136719 C 26.695312 -50.304688 28.816406 -49.4375 31.441406 -48.53125 C 34.300781 -47.542969 37.355469 -46.386719 40.601562 -45.058594 C 44.003906 -43.667969 47.207031 -41.988281 50.203125 -40.023438 C 53.425781 -37.914062 56.070312 -35.324219 58.136719 -32.25 C 60.351562 -28.960938 61.457031 -25.003906 61.457031 -20.378906 C 61.457031 -12.199219 58.605469 -5.902344 52.90625 -1.480469 C 47.488281 2.71875 39.957031 4.765625 30.308594 4.660156 Z M 30.308594 4.660156 "/></g></g></g><g fill="#ecd11e" fill-opacity="1"><g transform="translate(60.436781, 93.915608)"><g><path d="M 30.925781 4.804688 C 20.890625 4.804688 13.085938 1.070312 7.507812 -6.402344 C 2.191406 -13.53125 -0.46875 -23.4375 -0.46875 -36.128906 C -0.46875 -48.820312 2.191406 -58.730469 7.507812 -65.855469 C 13.085938 -73.328125 20.890625 -77.0625 30.925781 -77.0625 C 41.058594 -77.0625 48.914062 -73.328125 54.488281 -65.855469 C 59.808594 -58.730469 62.46875 -48.820312 62.46875 -36.128906 C 62.46875 -23.4375 59.808594 -13.53125 54.488281 -6.402344 C 48.914062 1.070312 41.058594 4.804688 30.925781 4.804688 Z M 30.925781 -2.78125 C 38.523438 -2.78125 44.347656 -5.5 48.40625 -10.941406 C 52.722656 -16.722656 54.878906 -25.117188 54.878906 -36.128906 C 54.878906 -47.140625 52.722656 -55.535156 48.40625 -61.320312 C 44.347656 -66.757812 38.523438 -69.476562 30.925781 -69.476562 C 23.429688 -69.476562 17.648438 -66.757812 13.589844 -61.320312 C 9.273438 -55.535156 7.117188 -47.140625 7.117188 -36.128906 C 7.117188 -25.117188 9.273438 -16.722656 13.589844 -10.941406 C 17.648438 -5.5 23.429688 -2.78125 30.925781 -2.78125 Z M 31.070312 -22.003906 C 31.652344 -22.003906 32.148438 -22.148438 32.558594 -22.445312 C 33.113281 -22.84375 33.621094 -23.523438 34.089844 -24.488281 C 35.339844 -27.066406 36.007812 -30.96875 36.09375 -36.191406 L 39.886719 -36.128906 L 36.09375 -36.066406 C 36.007812 -41.289062 35.339844 -45.191406 34.089844 -47.769531 C 33.621094 -48.734375 33.113281 -49.417969 32.558594 -49.8125 C 32.148438 -50.109375 31.652344 -50.257812 31.070312 -50.257812 C 30.417969 -50.257812 29.863281 -50.097656 29.40625 -49.78125 C 28.828125 -49.375 28.300781 -48.691406 27.816406 -47.730469 C 26.542969 -45.179688 25.90625 -41.3125 25.90625 -36.128906 C 25.90625 -30.945312 26.542969 -27.078125 27.816406 -24.53125 C 28.300781 -23.566406 28.828125 -22.882812 29.40625 -22.480469 C 29.863281 -22.160156 30.417969 -22.003906 31.070312 -22.003906 Z M 31.070312 -14.414062 C 28.832031 -14.414062 26.835938 -15.027344 25.074219 -16.25 C 23.4375 -17.390625 22.089844 -19.019531 21.03125 -21.136719 C 19.222656 -24.753906 18.316406 -29.75 18.316406 -36.128906 C 18.316406 -42.507812 19.222656 -47.503906 21.03125 -51.121094 C 22.089844 -53.238281 23.4375 -54.867188 25.074219 -56.007812 C 26.835938 -57.230469 28.832031 -57.84375 31.070312 -57.84375 C 33.285156 -57.84375 35.257812 -57.21875 36.988281 -55.972656 C 38.582031 -54.828125 39.890625 -53.195312 40.917969 -51.078125 C 42.652344 -47.492188 43.574219 -42.53125 43.679688 -36.191406 L 43.679688 -36.066406 C 43.574219 -29.726562 42.652344 -24.765625 40.917969 -21.179688 C 39.890625 -19.0625 38.582031 -17.429688 36.988281 -16.285156 C 35.257812 -15.039062 33.285156 -14.414062 31.070312 -14.414062 Z M 31.070312 -14.414062 "/></g></g></g><g fill="#ecd11e" fill-opacity="1"><g transform="translate(118.026736, 93.915608)"><g><path d="M 52.785156 -19.222656 L 52.785156 3.792969 L 0.253906 3.792969 L 0.253906 -76.050781 L 27.0625 -76.050781 L 27.0625 -19.222656 L 23.265625 -19.222656 L 23.265625 -23.015625 L 52.785156 -23.015625 Z M 45.199219 -19.222656 L 48.992188 -19.222656 L 48.992188 -15.425781 L 19.472656 -15.425781 L 19.472656 -72.257812 L 23.265625 -72.257812 L 23.265625 -68.464844 L 4.046875 -68.464844 L 4.046875 -72.257812 L 7.839844 -72.257812 L 7.839844 0 L 4.046875 0 L 4.046875 -3.792969 L 48.992188 -3.792969 L 48.992188 0 L 45.199219 0 Z M 45.199219 -19.222656 "/></g></g></g><g fill="#ecd11e" fill-opacity="1"><g transform="translate(164.199841, 93.915608)"><g><path d="M -0.46875 -49.460938 L 32.839844 -49.460938 L 32.839844 -22.796875 L -0.46875 -22.796875 Z M 7.117188 -41.875 L 7.117188 -30.386719 L 25.253906 -30.386719 L 25.253906 -41.875 Z M 7.117188 -41.875 "/></g></g></g><g fill="#ecd11e" fill-opacity="1"><g transform="translate(190.718635, 93.915608)"><g><path d="M 86.207031 -71.375 L 68.167969 3.792969 L 46.050781 3.792969 L 38.195312 -33.910156 L 41.910156 -34.683594 L 45.621094 -33.894531 L 37.613281 3.792969 L 15.652344 3.792969 L -3.511719 -76.050781 L 22.082031 -76.050781 L 30.609375 -30.320312 L 26.878906 -29.625 L 23.152344 -30.320312 L 31.675781 -76.050781 L 51.988281 -76.050781 L 60.667969 -30.332031 L 56.941406 -29.625 L 53.210938 -30.320312 L 61.738281 -76.050781 L 87.332031 -76.050781 Z M 78.832031 -73.144531 L 82.519531 -72.257812 L 82.519531 -68.464844 L 64.886719 -68.464844 L 64.886719 -72.257812 L 68.617188 -71.5625 L 60.667969 -28.929688 L 53.214844 -28.917969 L 45.121094 -71.550781 L 48.847656 -72.257812 L 48.847656 -68.464844 L 34.828125 -68.464844 L 34.828125 -72.257812 L 38.558594 -71.5625 L 30.609375 -28.929688 L 23.152344 -28.929688 L 15.203125 -71.5625 L 18.933594 -72.257812 L 18.933594 -68.464844 L 1.300781 -68.464844 L 1.300781 -72.257812 L 4.988281 -73.144531 L 22.332031 -0.886719 L 18.644531 0 L 18.644531 -3.792969 L 34.539062 -3.792969 L 34.539062 0 L 30.828125 -0.789062 L 38.199219 -35.472656 L 45.625 -35.457031 L 52.851562 -0.773438 L 49.136719 0 L 49.136719 -3.792969 L 65.175781 -3.792969 L 65.175781 0 L 61.488281 -0.886719 Z M 78.832031 -73.144531 "/></g></g></g><g fill="#ecd11e" fill-opacity="1"><g transform="translate(270.853221, 93.915608)"><g><path d="M 0.253906 -76.050781 L 27.0625 -76.050781 L 27.0625 3.792969 L 0.253906 3.792969 Z M 7.839844 -68.464844 L 7.839844 -3.792969 L 19.472656 -3.792969 L 19.472656 -68.464844 Z M 7.839844 -68.464844 "/></g></g></g><g fill="#ecd11e" fill-opacity="1"><g transform="translate(294.481693, 93.915608)"><g><path d="M 0.253906 0 L 0.253906 -76.050781 L 22.472656 -76.050781 L 39.691406 -40.230469 L 36.273438 -38.585938 L 32.480469 -38.585938 L 32.480469 -76.050781 L 59.289062 -76.050781 L 59.289062 3.792969 L 37.0625 3.792969 L 19.84375 -32.179688 L 23.265625 -33.816406 L 27.0625 -33.816406 L 27.0625 3.792969 L 0.253906 3.792969 Z M 7.839844 0 L 4.046875 0 L 4.046875 -3.792969 L 23.265625 -3.792969 L 23.265625 0 L 19.472656 0 L 19.472656 -33.816406 L 26.6875 -35.453125 L 42.875 -1.636719 L 39.453125 0 L 39.453125 -3.792969 L 55.496094 -3.792969 L 55.496094 0 L 51.703125 0 L 51.703125 -72.257812 L 55.496094 -72.257812 L 55.496094 -68.464844 L 36.273438 -68.464844 L 36.273438 -72.257812 L 40.066406 -72.257812 L 40.066406 -38.585938 L 32.855469 -36.941406 L 16.667969 -70.617188 L 20.089844 -72.257812 L 20.089844 -68.464844 L 4.046875 -68.464844 L 4.046875 -72.257812 L 7.839844 -72.257812 Z M 7.839844 0 "/></g></g></g><g fill="#000000" fill-opacity="1"><g transform="translate(4.002973, 93.915608)"><g><path d="M 30.34375 0.859375 C 39.113281 0.960938 45.859375 -0.8125 50.578125 -4.46875 C 55.296875 -8.132812 57.65625 -13.4375 57.65625 -20.375 C 57.65625 -24.226562 56.765625 -27.476562 54.984375 -30.125 C 53.203125 -32.78125 50.914062 -35.019531 48.125 -36.84375 C 45.332031 -38.675781 42.34375 -40.242188 39.15625 -41.546875 C 35.976562 -42.847656 32.992188 -43.976562 30.203125 -44.9375 C 27.410156 -45.90625 25.125 -46.847656 23.34375 -47.765625 C 21.5625 -48.679688 20.671875 -49.710938 20.671875 -50.859375 C 20.671875 -54.140625 23.703125 -55.78125 29.765625 -55.78125 C 32.554688 -55.78125 34.867188 -54.984375 36.703125 -53.390625 C 38.535156 -51.804688 39.738281 -49.519531 40.3125 -46.53125 L 56.21875 -51.296875 C 54.675781 -58.429688 51.640625 -63.875 47.109375 -67.625 C 42.578125 -71.382812 36.796875 -73.265625 29.765625 -73.265625 C 21.003906 -73.265625 14.285156 -71.429688 9.609375 -67.765625 C 4.929688 -64.109375 2.59375 -58.859375 2.59375 -52.015625 C 2.59375 -48.265625 3.484375 -45.0625 5.265625 -42.40625 C 7.054688 -39.757812 9.347656 -37.546875 12.140625 -35.765625 C 14.929688 -33.984375 17.890625 -32.488281 21.015625 -31.28125 C 24.148438 -30.082031 27.113281 -29 29.90625 -28.03125 C 32.707031 -27.070312 35 -26.085938 36.78125 -25.078125 C 38.5625 -24.066406 39.453125 -22.882812 39.453125 -21.53125 C 39.453125 -18.351562 36.414062 -16.765625 30.34375 -16.765625 C 27.644531 -16.765625 25.40625 -17.554688 23.625 -19.140625 C 21.84375 -20.734375 20.566406 -22.925781 19.796875 -25.71875 L 4.046875 -20.953125 C 5.585938 -13.921875 8.617188 -8.5 13.140625 -4.6875 C 17.671875 -0.882812 23.40625 0.960938 30.34375 0.859375 Z M 30.34375 0.859375 "/></g></g></g><g fill="#000000" fill-opacity="1"><g transform="translate(60.436781, 93.915608)"><g><path d="M 30.921875 1.015625 C 22.160156 1.015625 15.367188 -2.210938 10.546875 -8.671875 C 5.734375 -15.128906 3.328125 -24.28125 3.328125 -36.125 C 3.328125 -47.976562 5.734375 -57.128906 10.546875 -63.578125 C 15.367188 -70.035156 22.160156 -73.265625 30.921875 -73.265625 C 39.785156 -73.265625 46.625 -70.035156 51.4375 -63.578125 C 56.257812 -57.128906 58.671875 -47.976562 58.671875 -36.125 C 58.671875 -24.28125 56.257812 -15.128906 51.4375 -8.671875 C 46.625 -2.210938 39.785156 1.015625 30.921875 1.015625 Z M 31.0625 -18.203125 C 33.863281 -18.203125 36.007812 -19.742188 37.5 -22.828125 C 38.988281 -25.910156 39.785156 -30.34375 39.890625 -36.125 C 39.785156 -41.90625 38.988281 -46.335938 37.5 -49.421875 C 36.007812 -52.503906 33.863281 -54.046875 31.0625 -54.046875 C 28.175781 -54.046875 25.960938 -52.503906 24.421875 -49.421875 C 22.878906 -46.335938 22.109375 -41.90625 22.109375 -36.125 C 22.109375 -30.34375 22.878906 -25.910156 24.421875 -22.828125 C 25.960938 -19.742188 28.175781 -18.203125 31.0625 -18.203125 Z M 31.0625 -18.203125 "/></g></g></g><g fill="#000000" fill-opacity="1"><g transform="translate(118.026736, 93.915608)"><g><path d="M 48.984375 -19.21875 L 48.984375 0 L 4.046875 0 L 4.046875 -72.25 L 23.265625 -72.25 L 23.265625 -19.21875 Z M 48.984375 -19.21875 "/></g></g></g><g fill="#000000" fill-opacity="1"><g transform="translate(164.199841, 93.915608)"><g><path d="M 29.046875 -45.671875 L 29.046875 -26.59375 L 3.328125 -26.59375 L 3.328125 -45.671875 Z M 29.046875 -45.671875 "/></g></g></g><g fill="#000000" fill-opacity="1"><g transform="translate(190.718635, 93.915608)"><g><path d="M 82.515625 -72.25 L 65.171875 0 L 49.140625 0 L 41.90625 -34.6875 L 34.53125 0 L 18.640625 0 L 1.296875 -72.25 L 18.9375 -72.25 L 26.875 -29.625 L 34.828125 -72.25 L 48.84375 -72.25 L 56.9375 -29.625 L 64.890625 -72.25 Z M 82.515625 -72.25 "/></g></g></g><g fill="#000000" fill-opacity="1"><g transform="translate(270.853221, 93.915608)"><g><path d="M 23.265625 -72.25 L 23.265625 0 L 4.046875 0 L 4.046875 -72.25 Z M 23.265625 -72.25 "/></g></g></g><g fill="#000000" fill-opacity="1"><g transform="translate(294.481693, 93.915608)"><g><path d="M 4.046875 0 L 4.046875 -72.25 L 20.09375 -72.25 L 36.265625 -38.578125 L 36.265625 -72.25 L 55.484375 -72.25 L 55.484375 0 L 39.453125 0 L 23.265625 -33.8125 L 23.265625 0 Z M 4.046875 0 "/></g></g></g></g></g></g><g clip-path="url(#75c1f31b75)"><g transform="matrix(1, 0, 0, 1, 311, 134)"><g clip-path="url(#fef8a979b6)"><g fill="#191919" fill-opacity="1"><g transform="translate(0.741702, 44.938558)"><g><path d="M 30.734375 -23.140625 C 32.023438 -21.617188 32.757812 -19.945312 32.9375 -18.125 C 33.113281 -16.3125 32.875 -14.519531 32.21875 -12.75 C 31.570312 -10.976562 30.679688 -9.367188 29.546875 -7.921875 C 28.597656 -6.753906 27.535156 -5.691406 26.359375 -4.734375 C 25.191406 -3.785156 23.945312 -2.96875 22.625 -2.28125 C 21.507812 -1.675781 20.289062 -1.132812 18.96875 -0.65625 C 17.644531 -0.1875 16.332031 -0.0625 15.03125 -0.28125 C 13.957031 -0.4375 13.039062 -0.925781 12.28125 -1.75 C 11.300781 1.820312 10.523438 5.425781 9.953125 9.0625 C 9.890625 9.34375 9.722656 9.46875 9.453125 9.4375 C 9.191406 9.40625 8.898438 9.269531 8.578125 9.03125 C 8.265625 8.789062 7.992188 8.503906 7.765625 8.171875 C 7.546875 7.847656 7.457031 7.539062 7.5 7.25 C 9.070312 -2.382812 11.914062 -11.644531 16.03125 -20.53125 C 16.15625 -20.851562 16.367188 -20.988281 16.671875 -20.9375 C 16.972656 -20.882812 17.28125 -20.734375 17.59375 -20.484375 C 17.90625 -20.234375 18.15625 -19.945312 18.34375 -19.625 C 18.539062 -19.3125 18.578125 -19.03125 18.453125 -18.78125 C 17.273438 -16.21875 16.195312 -13.59375 15.21875 -10.90625 C 15.632812 -11.21875 16.078125 -11.503906 16.546875 -11.765625 C 16.765625 -11.890625 17.03125 -11.867188 17.34375 -11.703125 C 17.664062 -11.546875 17.953125 -11.3125 18.203125 -11 C 18.460938 -10.6875 18.625 -10.367188 18.6875 -10.046875 C 18.75 -9.734375 18.625 -9.484375 18.3125 -9.296875 C 17.289062 -8.753906 16.304688 -7.96875 15.359375 -6.9375 C 14.410156 -5.914062 13.84375 -4.804688 13.65625 -3.609375 C 13.59375 -3.222656 13.613281 -2.984375 13.71875 -2.890625 C 13.832031 -2.796875 14.066406 -2.734375 14.421875 -2.703125 C 14.671875 -2.703125 14.929688 -2.707031 15.203125 -2.71875 C 15.472656 -2.738281 15.734375 -2.78125 15.984375 -2.84375 C 16.546875 -2.96875 17.097656 -3.125 17.640625 -3.3125 C 18.179688 -3.507812 18.703125 -3.71875 19.203125 -3.9375 C 21.222656 -4.820312 23.109375 -6.015625 24.859375 -7.515625 C 26.617188 -9.015625 28.003906 -10.742188 29.015625 -12.703125 C 29.492188 -13.617188 29.867188 -14.609375 30.140625 -15.671875 C 30.410156 -16.734375 30.507812 -17.785156 30.4375 -18.828125 C 30.375 -19.867188 30.070312 -20.820312 29.53125 -21.6875 C 29 -22.5625 28.179688 -23.253906 27.078125 -23.765625 C 25.617188 -24.453125 24.082031 -24.753906 22.46875 -24.671875 C 20.863281 -24.597656 19.269531 -24.300781 17.6875 -23.78125 C 16.101562 -23.257812 14.632812 -22.695312 13.28125 -22.09375 C 12.238281 -21.625 11.242188 -21.09375 10.296875 -20.5 C 9.347656 -19.914062 8.429688 -19.265625 7.546875 -18.546875 C 6.660156 -17.785156 5.882812 -16.992188 5.21875 -16.171875 C 5.0625 -15.984375 4.898438 -15.773438 4.734375 -15.546875 C 4.578125 -15.328125 4.421875 -15.109375 4.265625 -14.890625 C 4.234375 -14.796875 4.125 -14.585938 3.9375 -14.265625 C 3.75 -13.953125 3.671875 -13.78125 3.703125 -13.75 C 4.046875 -13.1875 4.113281 -12.785156 3.90625 -12.546875 C 3.707031 -12.304688 3.394531 -12.234375 2.96875 -12.328125 C 2.539062 -12.421875 2.179688 -12.691406 1.890625 -13.140625 C 1.328125 -14.085938 1.203125 -15.019531 1.515625 -15.9375 C 1.828125 -16.851562 2.347656 -17.710938 3.078125 -18.515625 C 3.804688 -19.328125 4.503906 -20.03125 5.171875 -20.625 C 6.460938 -21.726562 7.859375 -22.675781 9.359375 -23.46875 C 10.867188 -24.257812 12.394531 -24.957031 13.9375 -25.5625 C 15.832031 -26.257812 17.800781 -26.722656 19.84375 -26.953125 C 21.882812 -27.191406 23.851562 -27.035156 25.75 -26.484375 C 27.644531 -25.929688 29.304688 -24.816406 30.734375 -23.140625 Z M 30.734375 -23.140625 "/></g></g></g><g fill="#191919" fill-opacity="1"><g transform="translate(35.120784, 44.938558)"><g><path d="M 10.859375 -5.828125 C 11.140625 -6.117188 11.4375 -6.195312 11.75 -6.0625 C 12.070312 -5.9375 12.3125 -5.71875 12.46875 -5.40625 C 12.625 -5.09375 12.5625 -4.789062 12.28125 -4.5 C 11.207031 -3.332031 9.9375 -2.273438 8.46875 -1.328125 C 7 -0.378906 5.503906 0.332031 3.984375 0.8125 C 3.253906 1.03125 2.550781 1.144531 1.875 1.15625 C 1.195312 1.175781 0.585938 0.867188 0.046875 0.234375 C -0.492188 -0.429688 -0.828125 -1.15625 -0.953125 -1.9375 C -1.078125 -2.726562 -1.046875 -3.535156 -0.859375 -4.359375 C -0.628906 -5.460938 -0.320312 -6.5625 0.0625 -7.65625 C 0.457031 -8.75 0.847656 -9.832031 1.234375 -10.90625 C 1.992188 -13.15625 2.785156 -15.398438 3.609375 -17.640625 C 4.460938 -19.953125 5.335938 -22.257812 6.234375 -24.5625 C 7.140625 -26.875 8.082031 -29.164062 9.0625 -31.4375 C 9.1875 -31.726562 9.394531 -31.851562 9.6875 -31.8125 C 9.988281 -31.78125 10.296875 -31.640625 10.609375 -31.390625 C 10.929688 -31.140625 11.1875 -30.847656 11.375 -30.515625 C 11.570312 -30.179688 11.601562 -29.890625 11.46875 -29.640625 C 10.425781 -27.140625 9.414062 -24.632812 8.4375 -22.125 C 7.457031 -19.613281 6.507812 -17.09375 5.59375 -14.5625 C 4.675781 -12.0625 3.804688 -9.546875 2.984375 -7.015625 C 2.828125 -6.609375 2.613281 -6.078125 2.34375 -5.421875 C 2.070312 -4.773438 1.832031 -4.097656 1.625 -3.390625 C 1.425781 -2.679688 1.359375 -2.023438 1.421875 -1.421875 C 2.585938 -1.609375 3.816406 -1.953125 5.109375 -2.453125 C 6.410156 -2.960938 7.582031 -3.535156 8.625 -4.171875 C 9.675781 -4.804688 10.421875 -5.359375 10.859375 -5.828125 Z M 10.859375 -5.828125 "/></g></g></g><g fill="#191919" fill-opacity="1"><g transform="translate(46.16951, 44.938558)"><g><path d="M 17.78125 -6.0625 C 18.09375 -6.320312 18.429688 -6.363281 18.796875 -6.1875 C 19.160156 -6.007812 19.4375 -5.75 19.625 -5.40625 C 19.820312 -5.0625 19.773438 -4.757812 19.484375 -4.5 C 18.378906 -3.519531 17.265625 -2.554688 16.140625 -1.609375 C 15.023438 -0.660156 13.832031 0.175781 12.5625 0.90625 C 12 1.25 11.375 1.570312 10.6875 1.875 C 10.007812 2.175781 9.320312 2.28125 8.625 2.1875 C 7.90625 2.125 7.273438 1.835938 6.734375 1.328125 C 6.191406 0.816406 5.8125 0.21875 5.59375 -0.46875 C 5.46875 -0.914062 5.421875 -1.34375 5.453125 -1.75 C 5.484375 -2.164062 5.5625 -2.5625 5.6875 -2.9375 C 4.425781 -2.113281 3.222656 -1.171875 2.078125 -0.109375 C 0.941406 0.941406 -0.347656 1.753906 -1.796875 2.328125 C -2.117188 2.453125 -2.457031 2.394531 -2.8125 2.15625 C -3.175781 1.914062 -3.46875 1.601562 -3.6875 1.21875 C -3.914062 0.84375 -4 0.5 -3.9375 0.1875 C -3.625 -1.226562 -3.078125 -2.609375 -2.296875 -3.953125 C -1.523438 -5.296875 -0.554688 -6.410156 0.609375 -7.296875 C 1.566406 -7.992188 2.570312 -8.269531 3.625 -8.125 C 4.6875 -7.988281 5.566406 -7.476562 6.265625 -6.59375 C 6.515625 -6.6875 6.765625 -6.78125 7.015625 -6.875 C 7.335938 -6.9375 7.703125 -6.828125 8.109375 -6.546875 C 8.359375 -6.359375 8.59375 -6.128906 8.8125 -5.859375 C 9.039062 -5.585938 9.171875 -5.328125 9.203125 -5.078125 C 9.234375 -4.921875 9.21875 -4.773438 9.15625 -4.640625 C 9.125 -4.265625 9.039062 -3.898438 8.90625 -3.546875 C 8.78125 -3.203125 8.65625 -2.84375 8.53125 -2.46875 C 8.40625 -2.113281 8.3125 -1.765625 8.25 -1.421875 C 8.1875 -1.078125 8.109375 -0.710938 8.015625 -0.328125 C 8.046875 -0.328125 8.066406 -0.328125 8.078125 -0.328125 C 8.097656 -0.328125 8.125 -0.328125 8.15625 -0.328125 C 8.851562 -0.421875 9.660156 -0.6875 10.578125 -1.125 C 11.492188 -1.570312 12.414062 -2.101562 13.34375 -2.71875 C 14.28125 -3.34375 15.144531 -3.953125 15.9375 -4.546875 C 16.726562 -5.148438 17.34375 -5.65625 17.78125 -6.0625 Z M 0.65625 -2.890625 C 1.289062 -3.398438 1.910156 -3.898438 2.515625 -4.390625 C 3.117188 -4.878906 3.75 -5.328125 4.40625 -5.734375 C 4.375 -5.734375 4.359375 -5.734375 4.359375 -5.734375 C 4.296875 -5.734375 4.21875 -5.722656 4.125 -5.703125 C 4.03125 -5.691406 3.9375 -5.671875 3.84375 -5.640625 C 3.59375 -5.578125 3.347656 -5.46875 3.109375 -5.3125 C 2.867188 -5.15625 2.65625 -5 2.46875 -4.84375 C 2.113281 -4.550781 1.796875 -4.25 1.515625 -3.9375 C 1.234375 -3.625 0.984375 -3.304688 0.765625 -2.984375 C 0.734375 -2.953125 0.71875 -2.925781 0.71875 -2.90625 C 0.71875 -2.894531 0.695312 -2.890625 0.65625 -2.890625 Z M 0.65625 -2.890625 "/></g></g></g><g clip-path="url(#3a502f9111)"><g fill="#191919" fill-opacity="1"><g transform="translate(64.236316, 44.938558)"><g><path d="M 20.15625 -6.125 C 20.46875 -6.3125 20.796875 -6.285156 21.140625 -6.046875 C 21.492188 -5.804688 21.734375 -5.503906 21.859375 -5.140625 C 21.984375 -4.773438 21.859375 -4.484375 21.484375 -4.265625 C 19.296875 -2.972656 17.210938 -1.5 15.234375 0.15625 C 13.265625 1.820312 11.378906 3.539062 9.578125 5.3125 C 7.078125 10.5 4.085938 15.367188 0.609375 19.921875 C 0.390625 20.203125 0.109375 20.25 -0.234375 20.0625 C -0.585938 19.875 -0.90625 19.601562 -1.1875 19.25 C -1.46875 18.90625 -1.640625 18.640625 -1.703125 18.453125 C -2.117188 16.960938 -2.023438 15.535156 -1.421875 14.171875 C -0.816406 12.816406 -0.0703125 11.554688 0.8125 10.390625 C 1.5625 9.347656 2.378906 8.34375 3.265625 7.375 C 4.148438 6.40625 5.035156 5.460938 5.921875 4.546875 C 6.335938 4.140625 6.78125 3.695312 7.25 3.21875 C 8.363281 0.976562 9.347656 -1.328125 10.203125 -3.703125 C 9.148438 -2.847656 8.085938 -2.054688 7.015625 -1.328125 C 6.222656 -0.816406 5.40625 -0.328125 4.5625 0.140625 C 3.726562 0.617188 2.867188 0.9375 1.984375 1.09375 C 1.097656 1.25 0.164062 1.125 -0.8125 0.71875 C -1.0625 0.582031 -1.34375 0.34375 -1.65625 0 C -1.976562 -0.34375 -2.125 -0.691406 -2.09375 -1.046875 C -1.863281 -3.578125 -0.960938 -5.820312 0.609375 -7.78125 C 0.804688 -8 1.0625 -8.050781 1.375 -7.9375 C 1.6875 -7.832031 1.984375 -7.632812 2.265625 -7.34375 C 2.554688 -7.0625 2.765625 -6.753906 2.890625 -6.421875 C 3.015625 -6.085938 2.984375 -5.796875 2.796875 -5.546875 C 1.785156 -4.285156 1.09375 -2.894531 0.71875 -1.375 C 1.15625 -1.46875 1.585938 -1.625 2.015625 -1.84375 C 2.441406 -2.070312 2.8125 -2.28125 3.125 -2.46875 C 3.726562 -2.8125 4.296875 -3.164062 4.828125 -3.53125 C 5.367188 -3.894531 5.910156 -4.28125 6.453125 -4.6875 C 7.492188 -5.445312 8.492188 -6.242188 9.453125 -7.078125 C 10.421875 -7.921875 11.363281 -8.800781 12.28125 -9.71875 C 12.5625 -10 12.898438 -10.019531 13.296875 -9.78125 C 13.691406 -9.550781 14.03125 -9.222656 14.3125 -8.796875 C 14.601562 -8.367188 14.703125 -8.015625 14.609375 -7.734375 C 14.003906 -5.703125 13.320312 -3.660156 12.5625 -1.609375 C 13.675781 -2.523438 14.910156 -3.335938 16.265625 -4.046875 C 17.628906 -4.765625 18.925781 -5.457031 20.15625 -6.125 Z M 20.15625 -6.125 "/></g></g></g></g><g fill="#191919" fill-opacity="1"><g transform="translate(84.721515, 44.938558)"><g/></g></g><g fill="#191919" fill-opacity="1"><g transform="translate(102.598645, 44.938558)"><g><path d="M 11.578125 -4.03125 C 11.828125 -4.21875 12.117188 -4.25 12.453125 -4.125 C 12.785156 -4 13.09375 -3.785156 13.375 -3.484375 C 13.65625 -3.179688 13.847656 -2.875 13.953125 -2.5625 C 14.066406 -2.25 14.015625 -1.992188 13.796875 -1.796875 C 13.359375 -1.453125 12.914062 -1.070312 12.46875 -0.65625 C 12.03125 -0.25 11.570312 0.140625 11.09375 0.515625 C 11.1875 0.773438 11.265625 1.015625 11.328125 1.234375 C 11.460938 1.546875 11.425781 1.78125 11.21875 1.9375 C 11.007812 2.101562 10.765625 2.15625 10.484375 2.09375 C 10.191406 2.019531 9.90625 1.859375 9.625 1.609375 C 8.800781 2.179688 7.921875 2.550781 6.984375 2.71875 C 6.054688 2.894531 5.054688 2.703125 3.984375 2.140625 C 2.816406 1.535156 2.054688 0.742188 1.703125 -0.234375 C 1.359375 -1.210938 1.296875 -2.253906 1.515625 -3.359375 C 1.734375 -4.472656 2.128906 -5.519531 2.703125 -6.5 C 3.242188 -7.476562 3.859375 -8.398438 4.546875 -9.265625 C 5.242188 -10.140625 5.957031 -11.019531 6.6875 -11.90625 C 6.71875 -12.570312 6.78125 -13.21875 6.875 -13.84375 C 6.9375 -14.320312 7.054688 -14.929688 7.234375 -15.671875 C 7.410156 -16.410156 7.640625 -17.179688 7.921875 -17.984375 C 8.203125 -18.796875 8.546875 -19.503906 8.953125 -20.109375 C 9.367188 -20.710938 9.859375 -21.097656 10.421875 -21.265625 C 10.992188 -21.441406 11.644531 -21.273438 12.375 -20.765625 C 13.226562 -20.109375 13.703125 -19.375 13.796875 -18.5625 C 13.890625 -17.757812 13.753906 -16.921875 13.390625 -16.046875 C 13.023438 -15.179688 12.550781 -14.351562 11.96875 -13.5625 C 11.382812 -12.769531 10.859375 -12.070312 10.390625 -11.46875 C 10.191406 -11.25 9.988281 -11.015625 9.78125 -10.765625 C 9.582031 -10.515625 9.375 -10.273438 9.15625 -10.046875 C 9.125 -8.785156 9.191406 -7.535156 9.359375 -6.296875 C 9.535156 -5.066406 9.78125 -3.851562 10.09375 -2.65625 C 10.351562 -2.90625 10.597656 -3.140625 10.828125 -3.359375 C 11.066406 -3.585938 11.316406 -3.8125 11.578125 -4.03125 Z M 4.59375 0.1875 C 4.976562 0.25 5.375 0.238281 5.78125 0.15625 C 6.195312 0.0820312 6.59375 -0.03125 6.96875 -0.1875 C 7.414062 -0.40625 7.875 -0.707031 8.34375 -1.09375 C 8.03125 -2.101562 7.742188 -3.128906 7.484375 -4.171875 C 7.234375 -5.210938 7.03125 -6.253906 6.875 -7.296875 C 6.269531 -6.515625 5.710938 -5.703125 5.203125 -4.859375 C 4.703125 -4.023438 4.3125 -3.132812 4.03125 -2.1875 C 3.875 -1.738281 3.785156 -1.253906 3.765625 -0.734375 C 3.753906 -0.210938 4.03125 0.09375 4.59375 0.1875 Z M 4.59375 0.1875 "/></g></g></g><g fill="#191919" fill-opacity="1"><g transform="translate(117.962539, 44.938558)"><g/></g></g><g fill="#191919" fill-opacity="1"><g transform="translate(135.839668, 44.938558)"><g><path d="M 32.0625 -18.96875 C 32.09375 -19.34375 32.238281 -19.546875 32.5 -19.578125 C 32.769531 -19.609375 33.070312 -19.519531 33.40625 -19.3125 C 33.738281 -19.113281 34.023438 -18.863281 34.265625 -18.5625 C 34.503906 -18.257812 34.609375 -17.96875 34.578125 -17.6875 C 34.316406 -15.539062 33.882812 -13.429688 33.28125 -11.359375 C 32.6875 -9.285156 31.882812 -7.285156 30.875 -5.359375 C 29.863281 -3.460938 28.707031 -1.675781 27.40625 0 C 26.875 0.695312 26.21875 1.457031 25.4375 2.28125 C 24.664062 3.101562 23.804688 3.609375 22.859375 3.796875 C 22.035156 3.984375 21.289062 3.789062 20.625 3.21875 C 19.957031 2.65625 19.5 2.007812 19.25 1.28125 C 18.9375 0.457031 18.832031 -0.410156 18.9375 -1.328125 C 19.050781 -2.242188 19.15625 -3.113281 19.25 -3.9375 C 19.3125 -4.476562 19.375 -5.015625 19.4375 -5.546875 C 19.5 -6.085938 19.5625 -6.625 19.625 -7.15625 C 18.394531 -5.257812 17.148438 -3.457031 15.890625 -1.75 C 14.367188 0.269531 12.769531 2.226562 11.09375 4.125 C 10.394531 4.945312 9.664062 5.722656 8.90625 6.453125 C 8.15625 7.179688 7.257812 7.6875 6.21875 7.96875 C 5.738281 8.09375 5.242188 7.925781 4.734375 7.46875 C 4.234375 7.007812 4 6.5625 4.03125 6.125 C 4.125 3.9375 4.566406 1.832031 5.359375 -0.1875 C 6.148438 -2.207031 6.957031 -4.203125 7.78125 -6.171875 C 8.632812 -8.285156 9.492188 -10.398438 10.359375 -12.515625 C 11.234375 -14.640625 12.113281 -16.757812 13 -18.875 C 13.21875 -19.445312 13.441406 -20.007812 13.671875 -20.5625 C 13.910156 -21.113281 14.144531 -21.671875 14.375 -22.234375 C 14.4375 -22.429688 14.503906 -22.628906 14.578125 -22.828125 C 14.660156 -23.035156 14.734375 -23.234375 14.796875 -23.421875 C 14.796875 -23.453125 14.796875 -23.484375 14.796875 -23.515625 C 14.796875 -23.546875 14.796875 -23.578125 14.796875 -23.609375 C 14.765625 -23.609375 14.734375 -23.609375 14.703125 -23.609375 C 14.316406 -23.296875 13.878906 -23.046875 13.390625 -22.859375 C 12.898438 -22.671875 12.453125 -22.445312 12.046875 -22.1875 C 11.253906 -21.6875 10.476562 -21.132812 9.71875 -20.53125 C 8.738281 -19.738281 7.773438 -18.835938 6.828125 -17.828125 C 5.878906 -16.816406 5.128906 -15.707031 4.578125 -14.5 C 4.023438 -13.300781 3.8125 -12.023438 3.9375 -10.671875 C 4 -10.285156 3.863281 -10.082031 3.53125 -10.0625 C 3.195312 -10.050781 2.921875 -10.097656 2.703125 -10.203125 C 2.390625 -10.359375 2.113281 -10.59375 1.875 -10.90625 C 1.632812 -11.21875 1.484375 -11.566406 1.421875 -11.953125 C 1.265625 -13.503906 1.507812 -14.96875 2.15625 -16.34375 C 2.800781 -17.71875 3.671875 -18.976562 4.765625 -20.125 C 5.859375 -21.28125 6.972656 -22.285156 8.109375 -23.140625 C 8.585938 -23.523438 9.148438 -23.953125 9.796875 -24.421875 C 10.441406 -24.898438 11.101562 -25.3125 11.78125 -25.65625 C 12.457031 -26 13.128906 -26.203125 13.796875 -26.265625 C 14.679688 -26.328125 15.472656 -25.992188 16.171875 -25.265625 C 16.867188 -24.546875 17.25 -23.757812 17.3125 -22.90625 C 17.375 -22.394531 17.316406 -21.882812 17.140625 -21.375 C 16.960938 -20.875 16.78125 -20.390625 16.59375 -19.921875 C 16.3125 -19.222656 16.023438 -18.53125 15.734375 -17.84375 C 15.453125 -17.164062 15.171875 -16.484375 14.890625 -15.796875 C 14.347656 -14.492188 13.816406 -13.191406 13.296875 -11.890625 C 12.773438 -10.597656 12.25 -9.304688 11.71875 -8.015625 C 11.175781 -6.710938 10.644531 -5.421875 10.125 -4.140625 C 9.601562 -2.867188 9.070312 -1.597656 8.53125 -0.328125 C 8.28125 0.367188 8.023438 1.070312 7.765625 1.78125 C 7.515625 2.488281 7.296875 3.191406 7.109375 3.890625 C 7.492188 3.535156 7.859375 3.160156 8.203125 2.765625 C 8.546875 2.378906 8.894531 1.976562 9.25 1.5625 C 10.769531 -0.207031 12.238281 -2.039062 13.65625 -3.9375 C 16.5 -7.757812 19.09375 -11.820312 21.4375 -16.125 C 21.53125 -16.46875 21.78125 -16.59375 22.1875 -16.5 C 22.476562 -16.4375 22.78125 -16.28125 23.09375 -16.03125 C 23.40625 -15.78125 23.640625 -15.492188 23.796875 -15.171875 C 23.960938 -14.859375 23.984375 -14.578125 23.859375 -14.328125 C 23.378906 -12.742188 22.992188 -11.117188 22.703125 -9.453125 C 22.421875 -7.796875 22.171875 -6.128906 21.953125 -4.453125 C 21.859375 -3.660156 21.769531 -2.867188 21.6875 -2.078125 C 21.613281 -1.296875 21.546875 -0.507812 21.484375 0.28125 C 21.453125 0.601562 21.453125 0.890625 21.484375 1.140625 C 21.484375 1.203125 21.484375 1.25 21.484375 1.28125 C 21.484375 1.25 21.5 1.234375 21.53125 1.234375 C 21.875 0.953125 22.226562 0.695312 22.59375 0.46875 C 22.957031 0.25 23.296875 -0.03125 23.609375 -0.375 C 25.222656 -1.957031 26.613281 -3.769531 27.78125 -5.8125 C 28.957031 -7.851562 29.898438 -10.003906 30.609375 -12.265625 C 31.316406 -14.523438 31.800781 -16.757812 32.0625 -18.96875 Z M 32.0625 -18.96875 "/></g></g></g><g fill="#191919" fill-opacity="1"><g transform="translate(171.783593, 44.938558)"><g><path d="M 8.96875 -5.875 C 9.25 -6.132812 9.570312 -6.191406 9.9375 -6.046875 C 10.300781 -5.898438 10.5625 -5.660156 10.71875 -5.328125 C 10.875 -5.003906 10.8125 -4.710938 10.53125 -4.453125 C 9.769531 -3.828125 8.984375 -3.203125 8.171875 -2.578125 C 7.367188 -1.960938 6.554688 -1.375 5.734375 -0.8125 C 5.035156 -0.363281 4.304688 0.09375 3.546875 0.5625 C 2.796875 1.039062 2.023438 1.375 1.234375 1.5625 C 0.597656 1.65625 0.00390625 1.5625 -0.546875 1.28125 C -1.097656 1 -1.546875 0.59375 -1.890625 0.0625 C -2.242188 -0.457031 -2.421875 -1.03125 -2.421875 -1.65625 C -2.453125 -2.695312 -2.164062 -3.78125 -1.5625 -4.90625 C -0.957031 -6.03125 -0.40625 -7.035156 0.09375 -7.921875 C 0.28125 -8.203125 0.53125 -8.3125 0.84375 -8.25 C 1.164062 -8.1875 1.484375 -8.023438 1.796875 -7.765625 C 2.117188 -7.515625 2.359375 -7.234375 2.515625 -6.921875 C 2.671875 -6.609375 2.6875 -6.34375 2.5625 -6.125 C 2.144531 -5.425781 1.765625 -4.71875 1.421875 -4 C 1.078125 -3.289062 0.757812 -2.570312 0.46875 -1.84375 C 0.40625 -1.65625 0.328125 -1.453125 0.234375 -1.234375 C 0.898438 -1.328125 1.769531 -1.625 2.84375 -2.125 C 3.914062 -2.632812 5.015625 -3.226562 6.140625 -3.90625 C 7.265625 -4.59375 8.207031 -5.25 8.96875 -5.875 Z M 4.6875 -10.8125 C 4.5 -10.4375 4.175781 -10.34375 3.71875 -10.53125 C 3.257812 -10.71875 2.851562 -11.023438 2.5 -11.453125 C 2.15625 -11.878906 2.066406 -12.265625 2.234375 -12.609375 C 2.515625 -13.179688 2.71875 -13.601562 2.84375 -13.875 C 2.96875 -14.144531 3.03125 -14.28125 3.03125 -14.28125 C 3.21875 -14.5625 3.46875 -14.675781 3.78125 -14.625 C 4.101562 -14.582031 4.414062 -14.429688 4.71875 -14.171875 C 5.019531 -13.921875 5.253906 -13.632812 5.421875 -13.3125 C 5.597656 -13 5.625 -12.71875 5.5 -12.46875 C 5.5 -12.46875 5.453125 -12.363281 5.359375 -12.15625 C 5.265625 -11.957031 5.039062 -11.507812 4.6875 -10.8125 Z M 4.6875 -10.8125 "/></g></g></g><g fill="#191919" fill-opacity="1"><g transform="translate(181.0778, 44.938558)"><g><path d="M 18.96875 -6.125 C 19.3125 -6.28125 19.625 -6.242188 19.90625 -6.015625 C 20.195312 -5.796875 20.363281 -5.519531 20.40625 -5.1875 C 20.457031 -4.851562 20.28125 -4.59375 19.875 -4.40625 C 18.664062 -3.8125 17.476562 -3.171875 16.3125 -2.484375 C 15.144531 -1.804688 13.972656 -1.101562 12.796875 -0.375 C 12.109375 0.0625 11.367188 0.539062 10.578125 1.0625 C 9.785156 1.582031 8.960938 1.957031 8.109375 2.1875 C 7.285156 2.375 6.566406 2.148438 5.953125 1.515625 C 5.335938 0.878906 5.09375 0.15625 5.21875 -0.65625 C 5.28125 -1.132812 5.394531 -1.601562 5.5625 -2.0625 C 5.738281 -2.519531 5.941406 -2.988281 6.171875 -3.46875 C 3.453125 -1.945312 1.078125 0.015625 -0.953125 2.421875 C -1.203125 2.734375 -1.523438 2.769531 -1.921875 2.53125 C -2.316406 2.300781 -2.65625 1.960938 -2.9375 1.515625 C -3.21875 1.078125 -3.328125 0.710938 -3.265625 0.421875 C -2.953125 -0.773438 -2.523438 -1.953125 -1.984375 -3.109375 C -1.453125 -4.265625 -0.867188 -5.394531 -0.234375 -6.5 C -0.078125 -6.78125 0.15625 -6.894531 0.46875 -6.84375 C 0.789062 -6.800781 1.109375 -6.648438 1.421875 -6.390625 C 1.734375 -6.140625 1.96875 -5.847656 2.125 -5.515625 C 2.289062 -5.191406 2.3125 -4.914062 2.1875 -4.6875 C 2.1875 -4.65625 2.175781 -4.625 2.15625 -4.59375 C 2.144531 -4.5625 2.125 -4.53125 2.09375 -4.5 C 4.238281 -5.988281 6.5625 -7.113281 9.0625 -7.875 C 9.40625 -8 9.765625 -7.925781 10.140625 -7.65625 C 10.523438 -7.382812 10.816406 -7.050781 11.015625 -6.65625 C 11.222656 -6.257812 11.234375 -5.890625 11.046875 -5.546875 C 10.640625 -4.878906 10.253906 -4.207031 9.890625 -3.53125 C 9.523438 -2.851562 9.171875 -2.164062 8.828125 -1.46875 C 10.460938 -2.289062 12.148438 -3.082031 13.890625 -3.84375 C 15.628906 -4.601562 17.320312 -5.363281 18.96875 -6.125 Z M 18.96875 -6.125 "/></g></g></g><g fill="#191919" fill-opacity="1"><g transform="translate(200.198936, 44.938558)"><g/></g></g></g></g></g><g clip-path="url(#f523da3632)"><g clip-path="url(#c2938dba08)"><g transform="matrix(1, 0, 0, 1, 52, 54)"><g clip-path="url(#d42b679cfd)"><g clip-path="url(#32d30f18fe)"><g clip-path="url(#4ee2c741a1)"><path fill="#000000" d="M 0.519531 0.378906 L 101.574219 0.378906 L 101.574219 101.433594 L 0.519531 101.433594 Z M 0.519531 0.378906 " fill-opacity="1" fill-rule="nonzero"/></g></g></g></g></g></g><g clip-path="url(#38605e3ef2)"><path fill="#ecd11e" d="M 129.34375 80.246094 C 122.25 78.566406 114.925781 82.429688 111.839844 88.898438 C 108.792969 95.285156 110.785156 103.378906 116.390625 107.671875 C 117.089844 108.207031 117.832031 108.679688 118.613281 109.089844 C 119.394531 109.503906 120.203125 109.84375 121.042969 110.121094 C 121.878906 110.394531 122.734375 110.597656 123.609375 110.730469 C 124.480469 110.859375 125.355469 110.917969 126.238281 110.902344 C 127.121094 110.886719 127.996094 110.796875 128.863281 110.632812 C 129.730469 110.46875 130.578125 110.234375 131.40625 109.929688 C 132.234375 109.625 133.03125 109.253906 133.792969 108.8125 C 134.558594 108.375 135.28125 107.875 135.964844 107.3125 C 139.511719 104.429688 141.425781 99.949219 141.5 95.4375 L 141.5 95.40625 C 141.488281 94.53125 141.40625 93.664062 141.25 92.804688 C 141.097656 91.941406 140.871094 91.101562 140.574219 90.277344 C 140.28125 89.457031 139.921875 88.660156 139.492188 87.898438 C 139.066406 87.136719 138.578125 86.414062 138.03125 85.730469 C 137.484375 85.050781 136.886719 84.417969 136.234375 83.835938 C 135.582031 83.253906 134.886719 82.726562 134.148438 82.261719 C 133.40625 81.792969 132.636719 81.390625 131.828125 81.054688 C 131.023438 80.714844 130.195312 80.445312 129.34375 80.246094 Z M 116.863281 106.019531 C 117 105.863281 116.589844 105.59375 116.457031 105.476562 C 115.984375 105.027344 115.539062 104.542969 115.128906 104.03125 C 114.726562 103.527344 114.363281 103 114.035156 102.445312 C 113.960938 102.316406 113.292969 101.074219 113.238281 101.136719 C 113.296875 101.0625 113.359375 100.992188 113.425781 100.921875 L 121.789062 91.183594 C 124.394531 88.148438 127.003906 85.113281 129.613281 82.078125 C 130.75 82.402344 131.832031 82.855469 132.859375 83.4375 C 133.210938 83.632812 134.847656 84.886719 135.054688 84.835938 C 135.058594 84.835938 135.058594 84.835938 135.0625 84.839844 C 134.824219 85.121094 134.582031 85.394531 134.34375 85.671875 C 133.085938 87.140625 131.820312 88.609375 130.558594 90.078125 C 127.066406 94.144531 123.574219 98.210938 120.082031 102.273438 C 119.078125 103.441406 118.074219 104.609375 117.070312 105.777344 C 117 105.859375 116.929688 105.9375 116.863281 106.019531 Z M 126.84375 81.621094 C 122.042969 87.207031 117.242188 92.792969 112.441406 98.386719 C 112.324219 97.863281 112.242188 97.335938 112.1875 96.804688 C 112.132812 96.273438 112.113281 95.742188 112.121094 95.207031 C 112.128906 94.671875 112.167969 94.140625 112.238281 93.613281 C 112.308594 93.082031 112.40625 92.558594 112.539062 92.039062 C 112.667969 91.523438 112.828125 91.015625 113.015625 90.515625 C 113.207031 90.015625 113.425781 89.527344 113.671875 89.054688 C 113.917969 88.578125 114.1875 88.121094 114.488281 87.679688 C 114.785156 87.234375 115.109375 86.8125 115.457031 86.40625 C 115.804688 86.003906 116.175781 85.617188 116.570312 85.257812 C 116.960938 84.894531 117.375 84.554688 117.804688 84.242188 C 118.238281 83.925781 118.6875 83.636719 119.152344 83.375 C 119.617188 83.113281 120.09375 82.878906 120.585938 82.671875 C 121.078125 82.464844 121.582031 82.285156 122.09375 82.136719 C 122.609375 81.988281 123.128906 81.871094 123.65625 81.78125 C 124.183594 81.691406 124.710938 81.636719 125.246094 81.609375 C 125.777344 81.582031 126.3125 81.585938 126.84375 81.621094 Z M 88.480469 83.167969 C 87.777344 82.632812 87.035156 82.160156 86.257812 81.746094 C 85.476562 81.335938 84.667969 80.992188 83.828125 80.71875 C 82.988281 80.445312 82.132812 80.242188 81.261719 80.109375 C 80.390625 79.980469 79.511719 79.921875 78.628906 79.9375 C 77.75 79.953125 76.875 80.042969 76.007812 80.207031 C 75.140625 80.371094 74.292969 80.605469 73.464844 80.910156 C 72.636719 81.214844 71.84375 81.589844 71.078125 82.027344 C 70.3125 82.46875 69.589844 82.96875 68.910156 83.527344 C 65.359375 86.414062 63.445312 90.890625 63.375 95.40625 L 63.375 95.433594 C 63.382812 96.308594 63.464844 97.175781 63.621094 98.035156 C 63.773438 98.894531 64 99.738281 64.292969 100.5625 C 64.589844 101.382812 64.949219 102.175781 65.375 102.941406 C 65.804688 103.703125 66.289062 104.425781 66.835938 105.109375 C 67.382812 105.789062 67.984375 106.421875 68.636719 107.003906 C 69.289062 107.585938 69.984375 108.113281 70.722656 108.578125 C 71.460938 109.042969 72.234375 109.445312 73.039062 109.785156 C 73.847656 110.125 74.675781 110.390625 75.527344 110.59375 C 82.621094 112.273438 89.945312 108.414062 93.03125 101.941406 C 96.082031 95.554688 94.089844 87.457031 88.480469 83.167969 Z M 69.78125 105.863281 C 69.765625 105.882812 69.746094 105.910156 69.726562 105.929688 C 69.726562 105.929688 69.726562 105.929688 69.726562 105.925781 C 69.84375 105.722656 69.078125 105.136719 68.929688 104.980469 C 68.089844 104.105469 67.375 103.136719 66.789062 102.074219 C 66.730469 101.96875 66.214844 100.921875 66.144531 101 C 66.167969 100.96875 66.195312 100.941406 66.21875 100.910156 C 66.539062 100.539062 66.863281 100.164062 67.183594 99.789062 C 70.417969 96.023438 73.652344 92.257812 76.886719 88.492188 C 78.410156 86.71875 79.933594 84.949219 81.453125 83.175781 C 81.785156 82.792969 82.117188 82.40625 82.449219 82.023438 C 82.554688 81.894531 84.210938 82.632812 84.445312 82.738281 C 85.679688 83.277344 86.808594 83.980469 87.835938 84.855469 C 82.351562 91.234375 76.871094 97.613281 71.386719 104 C 70.953125 104.5 70.523438 105.007812 70.089844 105.507812 C 69.984375 105.628906 69.886719 105.746094 69.78125 105.863281 Z M 68.671875 86.125 C 69.363281 85.367188 70.128906 84.695312 70.96875 84.109375 C 71.808594 83.519531 72.703125 83.03125 73.652344 82.640625 C 74.597656 82.25 75.578125 81.96875 76.589844 81.792969 C 77.597656 81.621094 78.617188 81.558594 79.640625 81.609375 C 74.882812 87.148438 70.128906 92.683594 65.371094 98.21875 C 65.160156 97.152344 65.070312 96.074219 65.109375 94.988281 C 65.144531 93.898438 65.308594 92.832031 65.59375 91.78125 C 65.878906 90.730469 66.285156 89.730469 66.804688 88.773438 C 67.324219 87.820312 67.949219 86.9375 68.671875 86.125 Z M 149.484375 87.445312 C 148.554688 87.152344 147.605469 87.007812 146.628906 87.023438 C 146.015625 87.019531 145.40625 87.074219 144.800781 87.183594 C 144.058594 85.515625 143.117188 83.976562 141.972656 82.558594 C 140.828125 81.140625 139.519531 79.894531 138.050781 78.820312 C 136.578125 77.742188 134.992188 76.878906 133.292969 76.21875 C 131.59375 75.558594 129.839844 75.132812 128.027344 74.933594 C 127.300781 74.847656 126.574219 74.808594 125.84375 74.808594 C 118.855469 74.808594 112.195312 78.601562 108.371094 84.734375 C 106.527344 84.472656 104.675781 84.3125 102.8125 84.25 C 102.785156 84.25 102.757812 84.25 102.726562 84.253906 C 102.6875 84.246094 102.644531 84.242188 102.601562 84.242188 C 102.597656 84.242188 102.285156 84.246094 102.285156 84.246094 C 102.242188 84.246094 102.203125 84.25 102.160156 84.257812 C 102.117188 84.253906 102.074219 84.25 102.027344 84.25 L 102.019531 84.25 C 100.171875 84.3125 98.328125 84.476562 96.496094 84.734375 C 95.566406 83.21875 94.457031 81.847656 93.175781 80.617188 C 91.890625 79.382812 90.46875 78.335938 88.917969 77.46875 C 87.363281 76.605469 85.722656 75.949219 84 75.503906 C 82.28125 75.058594 80.527344 74.839844 78.75 74.847656 C 78.121094 74.847656 77.484375 74.875 76.855469 74.929688 C 69.699219 75.578125 63.160156 80.363281 60.070312 87.183594 C 59.488281 87.082031 58.90625 87.035156 58.320312 87.039062 C 57.5 87.039062 56.6875 87.117188 55.886719 87.277344 C 53.402344 87.789062 52.519531 90.25 52.519531 92.382812 L 52.519531 92.601562 C 52.515625 94.3125 52.511719 96.445312 54.367188 97.699219 C 55.589844 98.527344 56.988281 98.632812 58.074219 98.632812 C 58.246094 98.632812 58.417969 98.628906 58.59375 98.625 C 60.289062 108.570312 69.019531 116 79.121094 116 C 79.378906 116 79.632812 115.996094 79.890625 115.988281 C 90.066406 115.617188 98.570312 107.269531 99.4375 96.894531 C 100.398438 96.6875 101.367188 96.554688 102.347656 96.488281 L 102.433594 96.480469 C 102.433594 96.480469 102.53125 96.488281 102.53125 96.488281 C 103.503906 96.554688 104.472656 96.6875 105.429688 96.894531 C 105.53125 98.132812 105.746094 99.355469 106.070312 100.554688 C 106.390625 101.757812 106.820312 102.917969 107.347656 104.042969 C 107.878906 105.167969 108.503906 106.238281 109.226562 107.25 C 109.949219 108.265625 110.753906 109.207031 111.644531 110.074219 C 112.53125 110.945312 113.492188 111.726562 114.523438 112.425781 C 115.550781 113.125 116.632812 113.726562 117.769531 114.230469 C 118.910156 114.734375 120.082031 115.132812 121.289062 115.429688 C 122.496094 115.722656 123.722656 115.910156 124.964844 115.988281 C 125.359375 116.011719 125.753906 116.023438 126.148438 116.023438 C 136.015625 116.023438 144.578125 108.582031 146.277344 98.625 C 146.441406 98.628906 146.605469 98.628906 146.769531 98.628906 C 147.707031 98.628906 148.929688 98.558594 150.074219 97.984375 C 152.355469 96.839844 152.355469 94.402344 152.355469 92.382812 C 152.355469 89.84375 151.335938 88.089844 149.484375 87.445312 Z M 144.804688 97.464844 C 143.640625 107.410156 134.964844 114.71875 125 114.359375 C 115.203125 114.003906 107.421875 105.652344 107.003906 96.035156 C 107 95.777344 106.875 95.613281 106.628906 95.539062 C 105.292969 95.089844 103.886719 94.980469 102.496094 94.851562 C 102.476562 94.851562 102.457031 94.847656 102.441406 94.847656 L 102.433594 94.847656 C 102.414062 94.847656 102.398438 94.851562 102.378906 94.851562 C 100.980469 94.980469 99.578125 95.089844 98.238281 95.539062 C 97.996094 95.613281 97.871094 95.777344 97.863281 96.035156 C 97.8125 97.207031 97.65625 98.367188 97.390625 99.515625 C 97.125 100.660156 96.761719 101.769531 96.292969 102.847656 C 95.824219 103.925781 95.261719 104.953125 94.601562 105.929688 C 93.945312 106.902344 93.207031 107.808594 92.382812 108.648438 C 91.558594 109.488281 90.664062 110.242188 89.703125 110.917969 C 88.738281 111.59375 87.722656 112.171875 86.652344 112.660156 C 85.585938 113.148438 84.480469 113.535156 83.339844 113.820312 C 82.199219 114.105469 81.042969 114.285156 79.871094 114.359375 C 69.921875 114.960938 61.207031 107.230469 60.0625 97.464844 C 60.0625 97.324219 60.011719 97.203125 59.910156 97.105469 C 59.8125 97.003906 59.691406 96.953125 59.550781 96.953125 C 58.71875 96.996094 57.882812 96.957031 57.050781 96.957031 C 54.515625 96.957031 54.148438 94.644531 54.148438 92.695312 C 54.148438 90.777344 54.75 88.757812 57.109375 88.757812 C 58.25 88.757812 59.480469 88.621094 60.585938 88.988281 C 60.722656 89.023438 60.851562 89.007812 60.972656 88.9375 C 61.09375 88.867188 61.175781 88.765625 61.214844 88.628906 C 61.539062 87.804688 61.921875 87.003906 62.359375 86.230469 C 62.796875 85.457031 63.285156 84.714844 63.824219 84.007812 C 64.363281 83.304688 64.949219 82.636719 65.578125 82.011719 C 66.210938 81.386719 66.882812 80.808594 67.59375 80.277344 C 68.304688 79.742188 69.050781 79.261719 69.828125 78.832031 C 70.605469 78.40625 71.410156 78.03125 72.238281 77.714844 C 73.070312 77.394531 73.917969 77.136719 74.78125 76.933594 C 75.648438 76.734375 76.523438 76.59375 77.410156 76.515625 C 84.789062 75.851562 91.824219 79.859375 95.476562 86.199219 C 95.613281 86.417969 95.804688 86.496094 96.058594 86.433594 C 98.039062 86.136719 100.03125 85.953125 102.035156 85.878906 C 102.078125 85.878906 102.121094 85.871094 102.160156 85.863281 C 102.316406 85.871094 102.472656 85.859375 102.625 85.832031 C 102.691406 85.859375 102.761719 85.878906 102.832031 85.878906 C 104.835938 85.953125 106.832031 86.136719 108.816406 86.433594 C 109.0625 86.496094 109.257812 86.414062 109.394531 86.199219 C 109.839844 85.414062 110.339844 84.664062 110.890625 83.953125 C 111.441406 83.238281 112.042969 82.566406 112.6875 81.9375 C 113.335938 81.308594 114.019531 80.726562 114.75 80.191406 C 115.476562 79.660156 116.238281 79.179688 117.035156 78.753906 C 117.828125 78.328125 118.648438 77.960938 119.496094 77.648438 C 120.34375 77.339844 121.207031 77.085938 122.089844 76.898438 C 122.972656 76.710938 123.863281 76.582031 124.765625 76.519531 C 125.664062 76.453125 126.5625 76.453125 127.464844 76.515625 C 134.695312 76.980469 141.019531 81.980469 143.65625 88.628906 C 143.695312 88.765625 143.777344 88.867188 143.898438 88.9375 C 144.019531 89.007812 144.152344 89.023438 144.285156 88.988281 C 145.386719 88.621094 146.617188 88.757812 147.761719 88.757812 C 150.125 88.757812 150.726562 90.777344 150.726562 92.695312 C 150.726562 94.734375 150.347656 96.785156 147.820312 96.957031 C 146.984375 97.003906 146.152344 97.003906 145.320312 96.953125 C 145.179688 96.953125 145.058594 97.003906 144.957031 97.105469 C 144.859375 97.203125 144.808594 97.324219 144.804688 97.464844 Z M 144.804688 97.464844 " fill-opacity="1" fill-rule="nonzero"/></g><g clip-path="url(#a48473a379)"><g clip-path="url(#116c75f766)"><g transform="matrix(1, 0, 0, 1, 111, 81)"><g clip-path="url(#d06ba86ad1)"><g clip-path="url(#faebe05b08)"><g clip-path="url(#f5fc73a753)"><path fill="#ecd11e" d="M 0.796875 0.191406 L 29.242188 0.191406 L 29.242188 28.636719 L 0.796875 28.636719 Z M 0.796875 0.191406 " fill-opacity="1" fill-rule="nonzero"/></g></g></g></g></g></g><g clip-path="url(#dc27bc6293)"><g clip-path="url(#5dd40edde0)"><g transform="matrix(1, 0, 0, 1, 64, 81)"><g clip-path="url(#8cff0a2241)"><g clip-path="url(#03ee93ee29)"><g clip-path="url(#3dffd4e36a)"><path fill="#ecd11e" d="M 0.632812 0.191406 L 29.078125 0.191406 L 29.078125 28.636719 L 0.632812 28.636719 Z M 0.632812 0.191406 " fill-opacity="1" fill-rule="nonzero"/></g></g></g></g></g></g><g clip-path="url(#08a47bf0e8)"><path fill="#000000" d="M 66.90625 87.527344 C 67.230469 87.21875 67.558594 86.917969 67.878906 86.609375 C 69.085938 85.429688 70.285156 84.242188 71.5 83.066406 C 71.617188 82.953125 71.8125 82.851562 71.976562 82.851562 C 78.207031 82.84375 84.4375 82.839844 90.667969 82.84375 C 90.738281 82.84375 90.8125 82.851562 90.9375 82.859375 C 90.859375 82.957031 90.816406 83.019531 90.761719 83.074219 C 89.28125 84.527344 87.800781 85.976562 86.320312 87.425781 C 86.203125 87.539062 85.996094 87.621094 85.832031 87.621094 C 79.625 87.632812 73.421875 87.636719 67.214844 87.628906 C 67.128906 87.628906 67.046875 87.621094 66.960938 87.613281 Z M 66.90625 87.527344 " fill-opacity="1" fill-rule="nonzero"/></g><g clip-path="url(#0705734e4c)"><path fill="#000000" d="M 90.953125 95.078125 L 90.488281 95.078125 C 84.367188 95.078125 78.246094 95.082031 72.125 95.085938 C 71.824219 95.085938 71.621094 94.992188 71.410156 94.785156 C 70.019531 93.402344 68.613281 92.03125 67.214844 90.660156 C 67.121094 90.566406 67.03125 90.46875 66.882812 90.316406 C 67.078125 90.304688 67.207031 90.292969 67.335938 90.292969 C 73.46875 90.292969 79.601562 90.292969 85.734375 90.289062 C 86.023438 90.289062 86.21875 90.375 86.417969 90.574219 C 87.902344 92.058594 89.394531 93.53125 90.953125 95.078125 Z M 90.953125 95.078125 " fill-opacity="1" fill-rule="nonzero"/></g><g clip-path="url(#d94c4eff60)"><path fill="#000000" d="M 90.941406 97.777344 C 90.828125 97.902344 90.757812 97.984375 90.683594 98.058594 C 89.238281 99.476562 87.796875 100.894531 86.34375 102.304688 C 86.21875 102.421875 86.003906 102.519531 85.832031 102.519531 C 79.625 102.53125 73.417969 102.53125 67.210938 102.527344 C 67.125 102.527344 67.042969 102.519531 66.898438 102.511719 C 67 102.398438 67.0625 102.316406 67.136719 102.246094 C 68.585938 100.820312 70.035156 99.390625 71.5 97.976562 C 71.625 97.851562 71.839844 97.757812 72.015625 97.757812 C 78.195312 97.746094 84.378906 97.746094 90.558594 97.75 C 90.667969 97.75 90.773438 97.765625 90.941406 97.777344 Z M 90.941406 97.777344 " fill-opacity="1" fill-rule="nonzero"/></g><g clip-path="url(#3a6b82b5ef)"><path fill="#000000" d="M 114.246094 87.527344 C 114.570312 87.21875 114.898438 86.917969 115.214844 86.609375 C 116.421875 85.429688 117.621094 84.242188 118.835938 83.066406 C 118.953125 82.953125 119.152344 82.851562 119.3125 82.851562 C 125.542969 82.84375 131.773438 82.839844 138.003906 82.84375 C 138.078125 82.84375 138.148438 82.851562 138.277344 82.859375 C 138.199219 82.957031 138.152344 83.019531 138.097656 83.074219 C 136.621094 84.527344 135.140625 85.976562 133.65625 87.425781 C 133.539062 87.539062 133.335938 87.621094 133.171875 87.621094 C 126.964844 87.632812 120.757812 87.636719 114.550781 87.628906 C 114.46875 87.628906 114.382812 87.621094 114.300781 87.613281 Z M 114.246094 87.527344 " fill-opacity="1" fill-rule="nonzero"/></g><g clip-path="url(#ed76d903ac)"><path fill="#000000" d="M 138.292969 95.078125 L 137.824219 95.078125 C 131.703125 95.078125 125.585938 95.082031 119.464844 95.085938 C 119.164062 95.085938 118.957031 94.992188 118.746094 94.785156 C 117.355469 93.402344 115.953125 92.03125 114.550781 90.660156 C 114.457031 90.566406 114.367188 90.46875 114.21875 90.316406 C 114.414062 90.304688 114.542969 90.292969 114.675781 90.292969 C 120.804688 90.292969 126.9375 90.292969 133.070312 90.289062 C 133.359375 90.289062 133.558594 90.375 133.757812 90.574219 C 135.238281 92.058594 136.730469 93.53125 138.292969 95.078125 Z M 138.292969 95.078125 " fill-opacity="1" fill-rule="nonzero"/></g><g clip-path="url(#b203f64c91)"><path fill="#000000" d="M 138.277344 97.777344 C 138.164062 97.902344 138.097656 97.984375 138.019531 98.058594 C 136.578125 99.476562 135.136719 100.894531 133.679688 102.304688 C 133.554688 102.421875 133.339844 102.519531 133.167969 102.519531 C 126.960938 102.53125 120.753906 102.53125 114.546875 102.527344 C 114.464844 102.527344 114.378906 102.519531 114.238281 102.511719 C 114.335938 102.398438 114.398438 102.316406 114.472656 102.246094 C 115.925781 100.820312 117.375 99.390625 118.835938 97.976562 C 118.960938 97.851562 119.179688 97.757812 119.351562 97.757812 C 125.535156 97.746094 131.714844 97.746094 137.898438 97.75 C 138.003906 97.75 138.109375 97.765625 138.277344 97.777344 Z M 138.277344 97.777344 " fill-opacity="1" fill-rule="nonzero"/></g><g clip-path="url(#9a283a1b5c)"><path fill="#000000" d="M 102.953125 124.171875 C 89.652344 124.171875 77.835938 121.65625 70.351562 117.753906 C 70.332031 117.992188 70.320312 118.234375 70.320312 118.476562 C 70.320312 127.464844 84.929688 139.527344 102.953125 139.527344 C 120.972656 139.527344 135.582031 127.464844 135.582031 118.476562 C 135.582031 118.234375 135.570312 117.992188 135.550781 117.753906 C 128.066406 121.65625 116.25 124.171875 102.953125 124.171875 Z M 102.953125 124.171875 " fill-opacity="1" fill-rule="nonzero"/></g><path fill="#ffffff" d="M 102.953125 133.683594 C 98.933594 133.683594 94.945312 133.050781 91.097656 131.796875 C 87.644531 130.671875 84.335938 129.039062 81.535156 127.074219 C 80.199219 126.140625 79.0625 125.195312 78.109375 124.277344 C 85.28125 126.351562 93.890625 127.488281 102.949219 127.488281 C 112.011719 127.488281 120.621094 126.351562 127.792969 124.277344 C 126.839844 125.195312 125.703125 126.140625 124.367188 127.074219 C 121.566406 129.039062 118.257812 130.671875 114.804688 131.796875 C 110.957031 133.050781 106.96875 133.683594 102.953125 133.683594 Z M 102.953125 133.683594 " fill-opacity="1" fill-rule="nonzero"/><g clip-path="url(#edef9d1e2e)"><path fill="#000000" d="M 136.351562 117.863281 C 137.140625 118.644531 137.753906 119.59375 138.171875 120.679688 C 138.546875 121.65625 138.753906 122.738281 138.773438 123.8125 C 138.78125 124.324219 138.75 124.796875 138.6875 125.230469 C 137.839844 123.277344 136.457031 121.292969 134.675781 119.523438 C 132.894531 117.757812 130.894531 116.386719 128.921875 115.542969 C 129.359375 115.484375 129.835938 115.453125 130.351562 115.460938 C 131.433594 115.480469 132.527344 115.6875 133.511719 116.058594 C 134.605469 116.472656 135.5625 117.078125 136.351562 117.863281 Z M 136.351562 117.863281 " fill-opacity="1" fill-rule="nonzero"/></g><g clip-path="url(#4b06283142)"><path fill="#000000" d="M 69.550781 117.863281 C 68.761719 118.644531 68.148438 119.59375 67.730469 120.679688 C 67.355469 121.65625 67.148438 122.738281 67.128906 123.8125 C 67.121094 124.324219 67.152344 124.796875 67.214844 125.230469 C 68.0625 123.277344 69.445312 121.292969 71.226562 119.523438 C 73.007812 117.757812 75.007812 116.386719 76.980469 115.542969 C 76.542969 115.484375 76.066406 115.453125 75.550781 115.460938 C 74.46875 115.480469 73.375 115.6875 72.390625 116.058594 C 71.296875 116.472656 70.339844 117.078125 69.550781 117.863281 Z M 69.550781 117.863281 " fill-opacity="1" fill-rule="nonzero"/></g></g></g></g></svg>